<svg xmlns="http://www.w3.org/2000/svg" viewBox="0 0 29.28 29.28"><defs><style>.cls-1{fill:#c7362d;}</style></defs><title>Resurs 4</title><g id="Lager_2" data-name="Lager 2"><g id="Lager_1-2" data-name="Lager 1"><path class="cls-1" d="M14.64,10.88a3.76,3.76,0,1,0,3.76,3.76,3.77,3.77,0,0,0-3.76-3.76m0,8.82a5.06,5.06,0,1,1,5.06-5.06,5.07,5.07,0,0,1-5.06,5.06m-5,3.48a1.87,1.87,0,0,1,.82.19l.94.38a2,2,0,0,1,1.27,1.81v2.16A.26.26,0,0,0,13,28h3.34a.27.27,0,0,0,.27-.26V25.56a2,2,0,0,1,1.31-1.82l.93-.39a2.12,2.12,0,0,1,2.17.38l1.53,1.53a.22.22,0,0,0,.37,0l2.37-2.37a.27.27,0,0,0,.07-.18.3.3,0,0,0-.07-.19L23.73,21a2,2,0,0,1-.36-2.21l.38-.94a2,2,0,0,1,1.81-1.26h2.16a.26.26,0,0,0,.26-.26V13a.26.26,0,0,0-.26-.26H25.56a2,2,0,0,1-1.82-1.32l-.39-.93a2,2,0,0,1,.37-2.17l1.54-1.53a.26.26,0,0,0,.07-.18.3.3,0,0,0-.07-.19L22.89,4a.22.22,0,0,0-.37,0L21,5.55a2,2,0,0,1-2.21.37l-.94-.39a2,2,0,0,1-1.26-1.8V1.56a.27.27,0,0,0-.27-.26H13a.26.26,0,0,0-.26.26V3.73a2,2,0,0,1-1.32,1.82l-.93.38a2.12,2.12,0,0,1-2.17-.38L6.76,4a.22.22,0,0,0-.37,0L4,6.39A.27.27,0,0,0,4,6.58.26.26,0,0,0,4,6.76L5.56,8.29a2,2,0,0,1,.35,2.21l-.38.94a2,2,0,0,1-1.8,1.27H1.56A.26.26,0,0,0,1.3,13v3.35a.26.26,0,0,0,.26.26H3.73a2,2,0,0,1,1.82,1.3l.38.94A2,2,0,0,1,5.56,21L4,22.52a.27.27,0,0,0-.08.19.27.27,0,0,0,.07.18l2.37,2.37a.22.22,0,0,0,.37,0l1.53-1.53a2,2,0,0,1,1.39-.55m6.63,6.1H13a1.56,1.56,0,0,1-1.56-1.56V25.56A.7.7,0,0,0,11,25l-1-.42a.65.65,0,0,0-.75.1L7.68,26.18a1.6,1.6,0,0,1-2.21,0L3.11,23.81a1.51,1.51,0,0,1-.46-1.1,1.53,1.53,0,0,1,.46-1.11l1.53-1.53a.72.72,0,0,0,.11-.71l-.42-1a.74.74,0,0,0-.6-.46H1.56A1.56,1.56,0,0,1,0,16.32V13A1.57,1.57,0,0,1,1.56,11.4H3.73A.69.69,0,0,0,4.31,11l.42-1a.73.73,0,0,0-.1-.76L3.11,7.68a1.51,1.51,0,0,1-.46-1.1,1.53,1.53,0,0,1,.46-1.11L5.47,3.11a1.6,1.6,0,0,1,2.21,0L9.21,4.64a.79.79,0,0,0,.71.11l1-.42a.73.73,0,0,0,.47-.6V1.56A1.56,1.56,0,0,1,13,0h3.34a1.56,1.56,0,0,1,1.57,1.56V3.73a.71.71,0,0,0,.42.58l1,.42a.65.65,0,0,0,.75-.1L21.6,3.11a1.6,1.6,0,0,1,2.21,0l2.37,2.37a1.57,1.57,0,0,1,.45,1.11,1.51,1.51,0,0,1-.46,1.1L24.65,9.21a.71.71,0,0,0-.12.71l.42,1a.72.72,0,0,0,.61.46h2.16A1.57,1.57,0,0,1,29.28,13v3.35a1.56,1.56,0,0,1-1.56,1.56H25.56a.7.7,0,0,0-.59.41l-.42,1a.71.71,0,0,0,.1.75l1.53,1.53a1.57,1.57,0,0,1,.45,1.11,1.51,1.51,0,0,1-.46,1.1l-2.36,2.37a1.61,1.61,0,0,1-2.21,0l-1.53-1.53a.76.76,0,0,0-.71-.12l-1,.42a.74.74,0,0,0-.46.61v2.16a1.56,1.56,0,0,1-1.57,1.56"/></g></g></svg>