<svg xmlns="http://www.w3.org/2000/svg" viewBox="0 0 21.21 28.85"><defs><style>.cls-1{fill:#c7362d;}</style></defs><title>Resurs 5</title><g id="Lager_2" data-name="Lager 2"><g id="Lager_1-2" data-name="Lager 1"><path class="cls-1" d="M10.72,1.3c-2.37,0-4.3,2.27-4.3,5.06s1.93,5.05,4.3,5.05S15,9.14,15,6.36,13.09,1.3,10.72,1.3m0,11.41c-3.09,0-5.6-2.85-5.6-6.35S7.63,0,10.72,0s5.6,2.85,5.6,6.36-2.52,6.35-5.6,6.35"/><path class="cls-1" d="M1.69,27.54H18.53a1.06,1.06,0,0,0,1.07-1L19.91,22a4.18,4.18,0,0,0-2.57-3.73,20.09,20.09,0,0,0-13.47,0A4.18,4.18,0,0,0,1.31,22Zm18.45,1.31H1.08a.65.65,0,0,1-.65-.61L0,22.09a5.46,5.46,0,0,1,3.41-5,21.36,21.36,0,0,1,14.37,0,5.46,5.46,0,0,1,3.42,5l-.42,6.15a.65.65,0,0,1-.65.61"/></g></g></svg>