<svg xmlns="http://www.w3.org/2000/svg" xmlns:xlink="http://www.w3.org/1999/xlink" viewBox="0 0 30.94 30.94"><defs><style>.cls-1{fill:none;}.cls-2{clip-path:url(#clip-path);}.cls-3{fill:#fff;}</style><clipPath id="clip-path"><rect class="cls-1" width="30.94" height="30.94"/></clipPath></defs><title>Resurs 11</title><g id="Lager_2" data-name="Lager 2"><g id="Lager_1-2" data-name="Lager 1"><g class="cls-2"><path class="cls-3" d="M16.22,20.18V14.71h1.35V13.37H16.22v-.55q0-1,1-1a2.23,2.23,0,0,1,.56.06l0-1.41a4,4,0,0,0-.93-.13,2.55,2.55,0,0,0-1.84.63,2.37,2.37,0,0,0-.66,1.78v.58h-1v1.34h1v5.47Z"/><path class="cls-3" d="M15.47.69A14.78,14.78,0,1,0,30.25,15.47,14.8,14.8,0,0,0,15.47.69m0,30.25A15.47,15.47,0,1,1,30.94,15.47,15.49,15.49,0,0,1,15.47,30.94"/></g></g></g></svg>