<svg xmlns="http://www.w3.org/2000/svg" xmlns:xlink="http://www.w3.org/1999/xlink" viewBox="0 0 30.94 30.94"><defs><style>.cls-1{fill:none;}.cls-2{clip-path:url(#clip-path);}.cls-3{fill:#fff;}</style><clipPath id="clip-path"><rect class="cls-1" width="30.94" height="30.94"/></clipPath></defs><title>Resurs 12</title><g id="Lager_2" data-name="Lager 2"><g id="Lager_1-2" data-name="Lager 1"><g class="cls-2"><path class="cls-3" d="M14.23,13.37v6.81h1.82v-4.8a1.25,1.25,0,0,1,1.15-.66A1.11,1.11,0,0,1,18,15a1.16,1.16,0,0,1,.25.84v4.35h1.82v-4.4a3,3,0,0,0-.54-1.9A2,2,0,0,0,18,13.25a2.38,2.38,0,0,0-2,.91l-.06-.79Zm-3.11-1.08a1,1,0,0,0,.74.26,1.08,1.08,0,0,0,.74-.26.92.92,0,0,0,.28-.68.9.9,0,0,0-.28-.67,1.16,1.16,0,0,0-1.49,0,1,1,0,0,0,0,1.35m1.65,1.08H10.94v6.81h1.83Z"/><path class="cls-3" d="M15.47.69A14.78,14.78,0,1,0,30.25,15.47,14.8,14.8,0,0,0,15.47.69m0,30.25A15.47,15.47,0,1,1,30.94,15.47,15.49,15.49,0,0,1,15.47,30.94"/></g></g></g></svg>