<svg xmlns="http://www.w3.org/2000/svg" viewBox="0 0 149.99 21.97"><defs><style>.cls-1{fill:#1b171b;}.cls-2{fill:#f5333f;}</style></defs><title>Resurs 3</title><g id="Lager_2" data-name="Lager 2"><g id="Lager_1-2" data-name="Lager 1"><polygon class="cls-1" points="31.82 21.79 31.82 10.41 31.77 10.41 28.27 21.79 27.2 21.79 23.69 10.41 23.63 10.41 23.63 21.79 22.4 21.79 22.4 9.33 24.53 9.33 27.72 19.41 27.75 19.41 30.89 9.33 33.06 9.33 33.06 21.79 31.82 21.79"/><path class="cls-1" d="M40.89,17.31c0,2.31-.94,3.59-2.43,3.59S36,19.62,36,17.31s.95-3.6,2.43-3.6,2.43,1.28,2.43,3.6M40.58,10H39.06V11.6h1.52Zm-2.73,0H36.33V11.6h1.52Zm4.28,7.33c0-2.59-1.22-4.67-3.67-4.67s-3.66,2.08-3.66,4.67S36,22,38.46,22s3.67-2.08,3.67-4.66"/><rect class="cls-1" x="44.04" y="9.33" width="1.24" height="12.46"/><path class="cls-1" d="M49.17,12.82V14h0a3.7,3.7,0,0,1,2.67-1.39,2.39,2.39,0,0,1,2.59,2.63v6.52H53.22V15.3c0-1.19-.57-1.59-1.47-1.59a4.13,4.13,0,0,0-2.58,1.37v6.71H47.93v-9Z"/><path class="cls-1" d="M62.39,19.69a3.14,3.14,0,0,1-2.26,1.21c-1.56,0-2.55-1.25-2.55-3.53,0-2.71,1.09-3.66,2.55-3.66A3.33,3.33,0,0,1,62.39,15Zm0-10.36v4.35l-.06,0a3.87,3.87,0,0,0-2.38-1c-1.52,0-3.61,1.18-3.61,4.67S58.43,22,60,22a2.92,2.92,0,0,0,2.37-1.06l.18.88H63.7a12.85,12.85,0,0,1-.07-2V9.33Z"/><path class="cls-1" d="M71.05,19.41a4.22,4.22,0,0,1-2.78,1.49,1.49,1.49,0,0,1-1.5-1.39c0-1.24,1.41-2.07,4.28-2.57Zm-4.17-4.3a2.34,2.34,0,0,1,2.31-1.4c1.08,0,1.86.45,1.86,1.64v.49c-4,.71-5.51,1.69-5.51,3.66A2.36,2.36,0,0,0,68.09,22a4,4,0,0,0,3-1.42l.14,1.24H72.5a6.56,6.56,0,0,1-.21-1.93V15.34c0-2-1.59-2.7-3.11-2.7a3.69,3.69,0,0,0-3.37,1.9Z"/><rect class="cls-1" x="74.97" y="9.33" width="1.24" height="12.46"/><path class="cls-1" d="M79.14,19.52a3.05,3.05,0,0,0,2.58,1.38c1.35,0,1.94-.73,1.94-1.49,0-2.28-5.32-1.07-5.22-4.35,0-1.55,1.24-2.44,3-2.42a4,4,0,0,1,3.07,1.57l-.86.77a2.81,2.81,0,0,0-2.32-1.27c-1,0-1.62.54-1.62,1.33,0,2,5.22,1,5.22,4.3,0,1.75-1.52,2.63-3.15,2.63a4.46,4.46,0,0,1-3.59-1.71Z"/><path class="cls-1" d="M88.29,15.85h2.39c2,0,3.26.94,3.26,2.53s-1,2.24-3,2.24h-2.6Zm-1.37,5.94h3.87c3.39,0,4.52-1.48,4.52-3.34a3.17,3.17,0,0,0-2.39-3.15l0,0A2.78,2.78,0,0,0,95,12.4c0-1.69-1.3-3.07-3.49-3.07H86.92ZM88.29,10.5h3c1.6,0,2.36.66,2.36,2.06,0,1-.82,2.12-2.91,2.12H88.29Z"/><path class="cls-1" d="M102.72,17.31c0,2.31-.94,3.59-2.43,3.59s-2.43-1.28-2.43-3.59,1-3.6,2.43-3.6,2.43,1.28,2.43,3.6m1.24,0c0-2.59-1.22-4.67-3.67-4.67s-3.66,2.08-3.66,4.67S97.85,22,100.29,22,104,19.89,104,17.31"/><path class="cls-1" d="M106,19.52a3,3,0,0,0,2.57,1.38c1.35,0,1.94-.73,1.94-1.49,0-2.28-5.32-1.07-5.22-4.35,0-1.55,1.24-2.44,3-2.42a4,4,0,0,1,3.08,1.57l-.86.77a2.81,2.81,0,0,0-2.32-1.27c-1.06,0-1.63.54-1.63,1.33,0,2,5.22,1,5.22,4.3,0,1.75-1.51,2.63-3.14,2.63A4.45,4.45,0,0,1,105,20.26Z"/><path class="cls-1" d="M114.24,12.82v-3h1.23v3h2.08v1.07h-2.08v6.39c0,.41.3.62,1,.62a7.23,7.23,0,0,0,1.11-.09v1a5.71,5.71,0,0,1-1.45.14c-1.35,0-1.91-.35-1.91-1.49V13.89h-1.47V12.82Z"/><path class="cls-1" d="M124.36,19.41a4.22,4.22,0,0,1-2.78,1.49,1.49,1.49,0,0,1-1.5-1.39c0-1.24,1.41-2.07,4.28-2.57Zm.12-9.43H123V11.6h1.52Zm-2.73,0h-1.52V11.6h1.52Zm-1.56,5.13a2.34,2.34,0,0,1,2.31-1.4c1.08,0,1.86.45,1.86,1.64v.49c-4,.71-5.51,1.69-5.51,3.66A2.37,2.37,0,0,0,121.41,22a4,4,0,0,0,3-1.42l.14,1.24h1.28a6.56,6.56,0,0,1-.21-1.93V15.34c0-2-1.59-2.7-3.11-2.7a3.69,3.69,0,0,0-3.37,1.9Z"/><path class="cls-1" d="M133.61,19.69a3.16,3.16,0,0,1-2.27,1.21c-1.56,0-2.55-1.25-2.55-3.53,0-2.71,1.09-3.66,2.55-3.66A3.37,3.37,0,0,1,133.61,15Zm0-10.36v4.35l-.07,0a3.84,3.84,0,0,0-2.37-1c-1.53,0-3.62,1.18-3.62,4.67S129.64,22,131.23,22a3,3,0,0,0,2.38-1.06l.17.88h1.13a12.85,12.85,0,0,1-.07-2V9.33Z"/><path class="cls-1" d="M137.91,16.46c.11-1.65.92-2.75,2.42-2.75,1.34,0,2.14,1.1,2.14,2.75ZM143,19.37a2.77,2.77,0,0,1-2.48,1.53c-1.49,0-2.66-1.39-2.66-3.36h5.83v-.83c0-2.86-1.55-4.07-3.42-4.07-2.21,0-3.65,1.76-3.65,4.66,0,3.28,1.89,4.67,3.9,4.67A3.58,3.58,0,0,0,144,19.88Z"/><path class="cls-1" d="M145.8,12.82H147v1.77h0A3.06,3.06,0,0,1,150,12.68v1.24c-1.55,0-2.37,1.05-3,2.9v5H145.8Z"/><path class="cls-2" d="M18.43,10.12a8.11,8.11,0,0,0-.09-1.55h0l-.09-.46c-.06-.25-.13-.5-.2-.75h0A9,9,0,0,0,17.51,6l.94-1.12-1-1.38L16.07,4A8.72,8.72,0,0,0,15,3h0c-.15-.11-.3-.22-.46-.32s-.39-.24-.59-.35h0a8.09,8.09,0,0,0-1.32-.57L12.45.29,10.78,0l-.65,1.32a5.77,5.77,0,0,0-.72,0h0l-.3,0-.18,0h0l-.25,0h0c-.24,0-.47.07-.71.12l-.59.16h0a9.27,9.27,0,0,0-1.3.52L4.93,1.26l-1.38,1L4,3.64a5.78,5.78,0,0,0-.49.5c-.15.16-.3.34-.44.52l-.05.06-.39.57c-.12.19-.23.38-.34.57h0a10,10,0,0,0-.58,1.35L.29,7.34,0,9l1.33.66c0,.21,0,.43,0,.65h0c0,.23,0,.45.06.68,0,0,0,.05,0,.08q0,.35.12.69c.05.2.1.4.16.6h0a9.23,9.23,0,0,0,.55,1.38l-.95,1.14,1,1.39,1.43-.49a8.24,8.24,0,0,0,1.1.95h0c.17.12.35.25.53.36a6.05,6.05,0,0,0,.55.32h0a7.84,7.84,0,0,0,1.3.56l.13,1.46,1.67.3.65-1.33a7.66,7.66,0,0,0,1.51-.09h0l.57-.1c.31-.07.62-.16.93-.26l.09,0,.19-.07c.26-.1.52-.21.76-.33l1.13.94,1.38-1-.47-1.39c.18-.16.35-.34.52-.52h0c.15-.16.29-.34.43-.52l.05-.07c.14-.18.27-.37.4-.56s.21-.36.31-.54h0A9,9,0,0,0,18,12.57v0l1.52-.13.29-1.67ZM13.28,5.75a5.28,5.28,0,0,1,1.57,2.16L13,7.57Zm-4-1.18a5.25,5.25,0,0,1,1.53,0,5.4,5.4,0,0,1,1.44.47l-.41,2.3-3-.53Zm-1.2.28L7.76,6.66,5.89,6.33A5.3,5.3,0,0,1,8.08,4.85M6.47,14A5.27,5.27,0,0,1,4.86,11.7L6.81,12ZM7,10.93,4.58,10.5a5.24,5.24,0,0,1,.6-3.15l2.38.42Zm3.46,4.26a5.37,5.37,0,0,1-3-.53l.42-2.42,3,.52Zm.62-3.54-3-.53L8.68,8l3,.52Zm.57,3.26L12,13l2,.34a5.25,5.25,0,0,1-2.32,1.61m3.49-4.11a5.6,5.6,0,0,1-.49,1.48l-2.45-.44.55-3.15,2.41.42a5.33,5.33,0,0,1,0,1.69"/></g></g></svg>