<?xml version="1.0" encoding="UTF-8"?>
<svg width="45px" height="46px" viewBox="0 0 45 46" version="1.1" xmlns="http://www.w3.org/2000/svg" xmlns:xlink="http://www.w3.org/1999/xlink">
    <!-- Generator: Sketch 46.2 (44496) - http://www.bohemiancoding.com/sketch -->
    <title>cog</title>
    <desc>Created with Sketch.</desc>
    <defs></defs>
    <g id="Page-1" stroke="none" stroke-width="1" fill="none" fill-rule="evenodd">
        <g id="Untitled-2" transform="translate(-90.000000, -42.000000)" fill-rule="nonzero" fill="#35424B">
            <g id="cog" transform="translate(90.000000, 42.000000)">
                <path d="M22.5,45.8 C10.1,45.8 0,35.7 0,23.3 C0,10.9 10.1,0.8 22.5,0.8 C34.9,0.8 45,10.9 45,23.3 C45,35.7 34.9,45.8 22.5,45.8 L22.5,45.8 Z M22.5,1.8 C10.6,1.8 1,11.4 1,23.3 C1,35.2 10.6,44.8 22.5,44.8 C34.4,44.8 44,35.1 44,23.3 C44,11.5 34.3,1.8 22.5,1.8 L22.5,1.8 Z" id="Shape"></path>
                <path d="M23.7,34.5 L21.1,34.5 C20.4,34.5 19.9,34 19.9,33.3 L19.9,31.6 C19.9,31.4 19.7,31.2 19.6,31.2 L18.8,30.9 C18.6,30.8 18.3,30.9 18.2,31 L17,32.2 C16.5,32.7 15.8,32.7 15.3,32.2 L13.5,30.4 C13.3,30.2 13.1,29.9 13.1,29.6 C13.1,29.3 13.2,29 13.5,28.7 L14.7,27.5 C14.8,27.4 14.9,27.1 14.8,27 L14.5,26.2 C14.4,26 14.2,25.8 14,25.8 L12.3,25.8 C11.6,25.8 11.1,25.3 11.1,24.6 L11.1,22 C11.1,21.3 11.6,20.8 12.3,20.8 L14,20.8 C14.2,20.8 14.4,20.6 14.4,20.5 L14.7,19.7 C14.8,19.5 14.7,19.2 14.6,19.1 L13.4,17.9 C13.2,17.7 13,17.4 13,17.1 C13,16.8 13.1,16.5 13.4,16.2 L15.2,14.4 C15.7,13.9 16.4,13.9 16.9,14.4 L18.1,15.6 C18.2,15.7 18.5,15.8 18.6,15.7 L19.4,15.4 C19.6,15.3 19.8,15.1 19.8,14.9 L19.8,13.2 C19.8,12.5 20.3,12 21,12 L23.6,12 C24.3,12 24.8,12.5 24.8,13.2 L24.8,14.9 C24.8,15.1 25,15.3 25.1,15.3 L25.9,15.6 C26.1,15.7 26.4,15.6 26.5,15.5 L27.7,14.3 C28.2,13.8 28.9,13.8 29.4,14.3 L31.2,16.1 C31.4,16.3 31.6,16.6 31.6,16.9 C31.6,17.2 31.5,17.5 31.2,17.8 L30,19 C29.9,19.1 29.8,19.4 29.9,19.5 L30.2,20.3 C30.3,20.5 30.5,20.7 30.7,20.7 L32.4,20.7 C33.1,20.7 33.6,21.2 33.6,21.9 L33.6,24.5 C33.6,25.2 33.1,25.7 32.4,25.7 L30.7,25.7 C30.5,25.7 30.3,25.9 30.3,26 L30,26.8 C29.9,27 30,27.3 30.1,27.4 L31.3,28.6 C31.5,28.8 31.7,29.1 31.7,29.4 C31.7,29.7 31.6,30 31.3,30.3 L29.5,32.1 C29,32.6 28.3,32.6 27.8,32.1 L26.6,30.9 C26.5,30.8 26.2,30.7 26.1,30.8 L25.3,31.1 C25.1,31.2 24.9,31.4 24.9,31.6 L24.9,33.3 C24.9,34 24.4,34.5 23.7,34.5 L23.7,34.5 Z M18.6,29.8 C18.8,29.8 19,29.8 19.2,29.9 L19.9,30.2 C20.4,30.4 20.9,31 20.9,31.6 L20.9,33.3 C20.9,33.4 21,33.5 21.1,33.5 L23.7,33.5 C23.8,33.5 23.9,33.4 23.9,33.3 L23.9,31.6 C23.9,31 24.3,30.4 24.9,30.2 L25.6,29.9 C26,29.7 26.9,29.8 27.3,30.2 L28.5,31.4 C28.6,31.5 28.7,31.5 28.8,31.4 L30.6,29.6 C30.7,29.5 30.7,29.5 30.7,29.5 C30.7,29.5 30.7,29.4 30.6,29.4 L29.4,28.2 C29,27.8 28.9,27 29.1,26.5 L29.4,25.8 C29.6,25.3 30.2,24.8 30.8,24.8 L32.5,24.8 C32.6,24.8 32.7,24.7 32.7,24.6 L32.7,22 C32.7,21.9 32.6,21.8 32.5,21.8 L30.8,21.8 C30.2,21.8 29.6,21.4 29.4,20.8 L29.1,20.1 C28.8,19.6 29,18.9 29.4,18.4 L30.6,17.2 C30.7,17.1 30.7,17.1 30.7,17.1 C30.7,17.1 30.7,17 30.6,17 L28.8,15.2 C28.7,15.1 28.6,15.1 28.5,15.2 L27.3,16.4 C26.9,16.8 26.1,16.9 25.6,16.7 L24.9,16.4 C24.4,16.2 23.9,15.6 23.9,15 L23.9,13.3 C23.9,13.2 23.8,13.1 23.7,13.1 L21.1,13.1 C21,13.1 20.9,13.2 20.9,13.3 L20.9,15 C20.9,15.6 20.5,16.2 19.9,16.4 L19.2,16.7 C18.8,16.9 17.9,16.8 17.5,16.4 L16.3,15.2 C16.2,15.1 16.1,15.1 16,15.2 L14.2,17 C14.1,17.1 14.1,17.1 14.1,17.1 C14.1,17.1 14.1,17.2 14.2,17.2 L15.4,18.4 C15.8,18.8 15.9,19.6 15.7,20.1 L15.4,20.8 C15.2,21.3 14.6,21.8 14,21.8 L12.3,21.8 C12.2,21.8 12.1,21.9 12.1,22 L12.1,24.6 C12.1,24.7 12.2,24.8 12.3,24.8 L14,24.8 C14.6,24.8 15.2,25.2 15.4,25.8 L15.7,26.5 C16,27 15.8,27.7 15.4,28.2 L14.2,29.4 C14.1,29.5 14.1,29.5 14.1,29.5 C14.1,29.5 14.1,29.6 14.2,29.6 L16,31.4 C16.1,31.5 16.2,31.5 16.3,31.4 L17.5,30.2 C17.8,30 18.2,29.8 18.6,29.8 L18.6,29.8 Z M22.5,27.2 C20.4,27.2 18.6,25.5 18.6,23.3 C18.6,21.1 20.3,19.4 22.5,19.4 C24.6,19.4 26.4,21.1 26.4,23.3 C26.4,25.5 24.6,27.2 22.5,27.2 L22.5,27.2 Z M22.5,20.4 C20.9,20.4 19.6,21.7 19.6,23.3 C19.6,24.9 20.9,26.2 22.5,26.2 C24.1,26.2 25.4,24.9 25.4,23.3 C25.3,21.7 24.1,20.4 22.5,20.4 L22.5,20.4 Z" id="Shape"></path>
            </g>
        </g>
    </g>
</svg>