<?xml version="1.0" encoding="UTF-8"?>
<svg width="46px" height="46px" viewBox="0 0 46 46" version="1.1" xmlns="http://www.w3.org/2000/svg" xmlns:xlink="http://www.w3.org/1999/xlink">
    <!-- Generator: Sketch 46.2 (44496) - http://www.bohemiancoding.com/sketch -->
    <title>home</title>
    <desc>Created with Sketch.</desc>
    <defs></defs>
    <g id="Page-1" stroke="none" stroke-width="1" fill="none" fill-rule="evenodd">
        <g id="Untitled-2" transform="translate(0.000000, -14.000000)" fill-rule="nonzero" fill="#35424B">
            <g id="home" transform="translate(0.000000, 14.000000)">
                <path d="M23,45.7 C10.6,45.7 0.5,35.6 0.5,23.2 C0.5,10.8 10.5,0.7 23,0.7 C35.4,0.7 45.5,10.8 45.5,23.2 C45.5,35.6 35.4,45.7 23,45.7 L23,45.7 Z M23,1.7 C11.1,1.7 1.5,11.3 1.5,23.2 C1.5,35.1 11.1,44.7 23,44.7 C34.9,44.7 44.5,35.1 44.5,23.2 C44.5,11.3 34.8,1.7 23,1.7 L23,1.7 Z" id="Shape"></path>
                <g id="Group" transform="translate(10.000000, 13.000000)">
                    <path d="M22,19.5 L15.6,19.5 C15.3,19.5 15.1,19.3 15.1,19 L15.1,12.2 L10.9,12.2 L10.9,19 C10.9,19.3 10.7,19.5 10.4,19.5 L4,19.5 C3.7,19.5 3.5,19.3 3.5,19 L3.5,8.6 C3.5,8.3 3.7,8.1 4,8.1 C4.3,8.1 4.5,8.3 4.5,8.6 L4.5,18.5 L9.9,18.5 L9.9,11.7 C9.9,11.4 10.1,11.2 10.4,11.2 L15.6,11.2 C15.9,11.2 16.1,11.4 16.1,11.7 L16.1,18.5 L21.5,18.5 L21.5,8.6 C21.5,8.3 21.7,8.1 22,8.1 C22.3,8.1 22.5,8.3 22.5,8.6 L22.5,19 C22.5,19.3 22.2,19.5 22,19.5 L22,19.5 Z" id="Shape"></path>
                    <path d="M25,10.5 C24.9,10.5 24.8,10.5 24.7,10.4 L13,2 L1.3,10.4 C1.1,10.6 0.8,10.5 0.6,10.3 C0.4,10.1 0.5,9.8 0.7,9.6 L12.7,1 C12.9,0.9 13.1,0.9 13.3,1 L25.3,9.6 C25.5,9.8 25.6,10.1 25.4,10.3 C25.3,10.4 25.1,10.5 25,10.5 L25,10.5 Z" id="Shape"></path>
                </g>
            </g>
        </g>
    </g>
</svg>