<?xml version="1.0" encoding="UTF-8"?>
<svg width="46px" height="46px" viewBox="0 0 46 46" version="1.1" xmlns="http://www.w3.org/2000/svg" xmlns:xlink="http://www.w3.org/1999/xlink">
    <!-- Generator: Sketch 46.2 (44496) - http://www.bohemiancoding.com/sketch -->
    <title>login</title>
    <desc>Created with Sketch.</desc>
    <defs></defs>
    <g id="Page-1" stroke="none" stroke-width="1" fill="none" fill-rule="evenodd">
        <g id="Untitled-2" transform="translate(-166.000000, 0.000000)" fill-rule="nonzero" fill="#35424B">
            <g id="login" transform="translate(166.000000, 0.000000)">
                <path d="M22.6,45.8 C10.2,45.8 0.1,35.7 0.1,23.3 C0.1,10.9 10.2,0.8 22.6,0.8 C35,0.8 45.1,10.9 45.1,23.3 C45.1,35.7 35,45.8 22.6,45.8 L22.6,45.8 Z M22.6,1.8 C10.7,1.8 1.1,11.4 1.1,23.3 C1.1,35.2 10.7,44.8 22.6,44.8 C34.5,44.8 44.1,35.2 44.1,23.3 C44.1,11.4 34.5,1.8 22.6,1.8 L22.6,1.8 Z" id="Shape"></path>
                <g id="Group" transform="translate(11.000000, 12.000000)">
                    <g transform="translate(9.000000, 4.000000)" id="Shape">
                        <path d="M8.2,14.4 C8.1,14.4 8,14.4 7.9,14.3 C7.7,14.1 7.6,13.8 7.8,13.6 L12.4,7.3 L7.8,1 C7.6,0.8 7.7,0.5 7.9,0.3 C8.1,0.1 8.4,0.2 8.6,0.4 L13.4,7 C13.5,7.2 13.5,7.4 13.4,7.6 L8.6,14.2 C8.5,14.3 8.3,14.4 8.2,14.4 L8.2,14.4 Z"></path>
                        <path d="M13,7.8 L0.6,7.8 C0.3,7.8 0.1,7.6 0.1,7.3 C0.1,7 0.3,6.8 0.6,6.8 L13,6.8 C13.3,6.8 13.5,7 13.5,7.3 C13.5,7.6 13.3,7.8 13,7.8 L13,7.8 Z"></path>
                    </g>
                    <path d="M1.2,22.5 C0.9,22.5 0.7,22.3 0.7,22 L0.7,0.7 C0.7,0.4 0.9,0.2 1.2,0.2 C1.5,0.2 1.7,0.4 1.7,0.7 L1.7,22 C1.7,22.2 1.5,22.5 1.2,22.5 L1.2,22.5 Z" id="Shape"></path>
                    <g id="Shape">
                        <path d="M14.6,22.5 L1.2,22.5 C0.9,22.5 0.7,22.3 0.7,22 C0.7,21.7 0.9,21.5 1.2,21.5 L14.6,21.5 C14.9,21.5 15.1,21.7 15.1,22 C15.1,22.2 14.9,22.5 14.6,22.5 L14.6,22.5 Z"></path>
                        <path d="M14.6,1.2 L1.2,1.2 C0.9,1.2 0.7,1 0.7,0.7 C0.7,0.4 0.9,0.2 1.2,0.2 L14.6,0.2 C14.9,0.2 15.1,0.4 15.1,0.7 C15.1,0.9 14.9,1.2 14.6,1.2 L14.6,1.2 Z"></path>
                    </g>
                </g>
            </g>
        </g>
    </g>
</svg>