<svg id="Lager_1" data-name="Lager 1" xmlns="http://www.w3.org/2000/svg" viewBox="0 0 149.99 35.35"><defs><style>.cls-1{fill:#201e22;}.cls-2{fill:#c63931;}.cls-3{fill:#707072;}</style></defs><title>logo_enbattrevard_2013_</title><polygon class="cls-1" points="31.82 21.79 31.82 10.41 31.77 10.41 28.27 21.79 27.2 21.79 23.69 10.41 23.63 10.41 23.63 21.79 22.4 21.79 22.4 9.33 24.53 9.33 27.72 19.41 27.75 19.41 30.89 9.33 33.06 9.33 33.06 21.79 31.82 21.79"/><path class="cls-1" d="M389.18,267.41c0,2.31-.95,3.59-2.43,3.59s-2.43-1.28-2.43-3.59.95-3.59,2.43-3.59,2.43,1.28,2.43,3.59m-.31-7.32h-1.52v1.62h1.52Zm-2.73,0h-1.52v1.62h1.52Zm4.28,7.32c0-2.59-1.22-4.67-3.67-4.67s-3.67,2.08-3.67,4.67,1.22,4.67,3.67,4.67,3.67-2.08,3.67-4.67" transform="translate(-348.29 -250.1)"/><rect class="cls-1" x="44.04" y="9.33" width="1.24" height="12.46"/><path class="cls-1" d="M397.46,262.92v1.21h0a3.68,3.68,0,0,1,2.67-1.39,2.39,2.39,0,0,1,2.58,2.63v6.53H401.5v-6.49c0-1.19-.57-1.59-1.47-1.59a4.16,4.16,0,0,0-2.57,1.36v6.72h-1.24v-9Z" transform="translate(-348.29 -250.1)"/><path class="cls-1" d="M410.68,269.79a3.1,3.1,0,0,1-2.27,1.21c-1.56,0-2.54-1.24-2.54-3.52,0-2.71,1.09-3.66,2.54-3.66a3.37,3.37,0,0,1,2.27,1.24Zm0-10.36v4.36l-.07,0a3.88,3.88,0,0,0-2.37-1c-1.53,0-3.61,1.18-3.61,4.67s2.08,4.67,3.68,4.67a3,3,0,0,0,2.37-1.06l.17.88H412a11.77,11.77,0,0,1-.07-2v-10.5Z" transform="translate(-348.29 -250.1)"/><path class="cls-1" d="M419.34,269.51a4.22,4.22,0,0,1-2.79,1.49,1.48,1.48,0,0,1-1.49-1.38c0-1.25,1.41-2.08,4.28-2.58Zm-4.18-4.29a2.35,2.35,0,0,1,2.32-1.4c1.07,0,1.86.45,1.86,1.64v.48c-4,.71-5.52,1.69-5.52,3.66a2.38,2.38,0,0,0,2.56,2.48,4,4,0,0,0,3-1.42l.14,1.24h1.27a7,7,0,0,1-.21-1.93v-4.53c0-2-1.58-2.7-3.1-2.7a3.68,3.68,0,0,0-3.37,1.91Z" transform="translate(-348.29 -250.1)"/><rect class="cls-1" x="74.97" y="9.33" width="1.24" height="12.46"/><path class="cls-1" d="M427.43,269.62A3,3,0,0,0,430,271c1.35,0,1.94-.72,1.94-1.48,0-2.28-5.33-1.07-5.22-4.35,0-1.56,1.23-2.44,3-2.43a4,4,0,0,1,3.08,1.58l-.86.76a2.8,2.8,0,0,0-2.32-1.26c-1,0-1.63.53-1.63,1.33,0,2,5.22,1,5.22,4.3,0,1.74-1.51,2.63-3.14,2.63a4.47,4.47,0,0,1-3.59-1.72Z" transform="translate(-348.29 -250.1)"/><path class="cls-1" d="M436.58,266H439c2,0,3.26.93,3.26,2.52s-1,2.25-3.05,2.25h-2.6Zm-1.37,5.94h3.87c3.39,0,4.52-1.48,4.52-3.35a3.16,3.16,0,0,0-2.39-3.14l0,0a2.77,2.77,0,0,0,2.1-2.86c0-1.7-1.31-3.08-3.49-3.08h-4.59Zm1.37-11.3h3c1.59,0,2.35.66,2.35,2.06,0,1.06-.81,2.13-2.91,2.13h-2.42Z" transform="translate(-348.29 -250.1)"/><path class="cls-1" d="M451,267.41c0,2.31-.95,3.59-2.43,3.59s-2.43-1.28-2.43-3.59,1-3.59,2.43-3.59,2.43,1.28,2.43,3.59m1.24,0c0-2.59-1.22-4.67-3.67-4.67s-3.67,2.08-3.67,4.67,1.22,4.67,3.67,4.67,3.67-2.08,3.67-4.67" transform="translate(-348.29 -250.1)"/><path class="cls-1" d="M454.3,269.62a3,3,0,0,0,2.58,1.38c1.35,0,1.94-.72,1.94-1.48,0-2.28-5.32-1.07-5.22-4.35,0-1.56,1.24-2.44,3-2.43a3.93,3.93,0,0,1,3.07,1.58l-.86.76a2.8,2.8,0,0,0-2.32-1.26c-1,0-1.62.53-1.62,1.33,0,2,5.22,1,5.22,4.3,0,1.74-1.52,2.63-3.14,2.63a4.47,4.47,0,0,1-3.6-1.72Z" transform="translate(-348.29 -250.1)"/><path class="cls-1" d="M462.52,262.92V260h1.24v2.95h2.07V264h-2.07v6.38c0,.41.29.62,1,.62a6.16,6.16,0,0,0,1.11-.09v1a5.75,5.75,0,0,1-1.46.14c-1.34,0-1.91-.35-1.91-1.49V264h-1.47v-1.08Z" transform="translate(-348.29 -250.1)"/><path class="cls-1" d="M472.65,269.51a4.22,4.22,0,0,1-2.78,1.49,1.48,1.48,0,0,1-1.5-1.38c0-1.25,1.41-2.08,4.28-2.58Zm.12-9.42h-1.52v1.62h1.52Zm-2.73,0h-1.52v1.62H470Zm-1.56,5.13a2.32,2.32,0,0,1,2.31-1.4c1.07,0,1.86.45,1.86,1.64v.48c-4,.71-5.52,1.69-5.52,3.66a2.38,2.38,0,0,0,2.56,2.48,4,4,0,0,0,3-1.42l.14,1.24h1.27a7,7,0,0,1-.21-1.93v-4.53c0-2-1.58-2.7-3.1-2.7a3.68,3.68,0,0,0-3.37,1.91Z" transform="translate(-348.29 -250.1)"/><path class="cls-1" d="M481.89,269.79a3.1,3.1,0,0,1-2.27,1.21c-1.55,0-2.54-1.24-2.54-3.52,0-2.71,1.09-3.66,2.54-3.66a3.35,3.35,0,0,1,2.27,1.24Zm0-10.36v4.36l-.06,0a3.93,3.93,0,0,0-2.38-1c-1.52,0-3.61,1.18-3.61,4.67s2.09,4.67,3.68,4.67a3,3,0,0,0,2.37-1.06l.18.88h1.13a12.93,12.93,0,0,1-.07-2v-10.5Z" transform="translate(-348.29 -250.1)"/><path class="cls-1" d="M486.2,266.57c.1-1.65.91-2.75,2.41-2.75,1.35,0,2.14,1.1,2.14,2.75Zm5.1,2.91a2.76,2.76,0,0,1-2.48,1.52c-1.48,0-2.66-1.38-2.66-3.36H492v-.83c0-2.85-1.55-4.07-3.41-4.07-2.21,0-3.65,1.77-3.65,4.66,0,3.29,1.89,4.68,3.89,4.68a3.6,3.6,0,0,0,3.45-2.1Z" transform="translate(-348.29 -250.1)"/><path class="cls-1" d="M494.08,262.92h1.24v1.78h0a3,3,0,0,1,2.92-1.91V264c-1.56,0-2.37,1.06-3,2.91v5h-1.24Z" transform="translate(-348.29 -250.1)"/><path class="cls-2" d="M366.72,260.23a9,9,0,0,0-.1-1.55h0a3.4,3.4,0,0,0-.09-.46,5.89,5.89,0,0,0-.2-.75h0a7.74,7.74,0,0,0-.55-1.36l.94-1.12-1-1.39-1.4.48a8.56,8.56,0,0,0-1.11-1h0l-.47-.32c-.19-.12-.39-.24-.59-.34h0a10.43,10.43,0,0,0-1.33-.57l-.13-1.45-1.66-.3-.65,1.32h-.73l-.29,0h-.19l-.25,0h0l-.7.13c-.2,0-.4.1-.59.15v0a8.31,8.31,0,0,0-1.31.52l-1.13-.95-1.38,1,.47,1.4c-.17.16-.33.33-.49.5s-.29.34-.43.52l-.05.07a5.72,5.72,0,0,0-.39.57,5.36,5.36,0,0,0-.34.57h0a8,8,0,0,0-.57,1.35l-1.46.13-.29,1.66,1.33.66c0,.22,0,.44,0,.66h0c0,.22,0,.45.07.68a.17.17,0,0,0,0,.07q0,.35.12.69c.05.2.1.41.16.6h0a8.17,8.17,0,0,0,.55,1.37l-1,1.15,1,1.38,1.44-.49a9,9,0,0,0,1.09,1h0a6,6,0,0,0,.52.36,6.32,6.32,0,0,0,.56.33h0a8.35,8.35,0,0,0,1.3.56l.13,1.46,1.66.29.66-1.32a8.58,8.58,0,0,0,1.51-.1h0l.56-.11a9.07,9.07,0,0,0,.93-.26l.1,0,.19-.07a7.35,7.35,0,0,0,.76-.34l1.12.94,1.39-1-.48-1.38a6.47,6.47,0,0,0,.52-.53h0c.15-.17.3-.34.44-.52a.18.18,0,0,1,0-.07c.14-.19.27-.37.39-.57s.22-.35.32-.53h0a8.78,8.78,0,0,0,.56-1.3v0l1.51-.14.3-1.66Zm-5.15-4.38a5.44,5.44,0,0,1,1.57,2.16l-1.9-.33Zm-4-1.18a5.33,5.33,0,0,1,1.54.05,5.4,5.4,0,0,1,1.44.47l-.41,2.29-3-.52Zm-1.19.28-.32,1.81-1.87-.33a5.24,5.24,0,0,1,2.19-1.48m-1.62,9.14a5.42,5.42,0,0,1-1.6-2.29l2,.35Zm.54-3.06-2.43-.43a5.45,5.45,0,0,1,.6-3.15l2.39.43Zm3.46,4.26a5.37,5.37,0,0,1-3-.53l.43-2.42,3,.52Zm.63-3.54-3-.52.55-3.16,3,.52ZM360,265l.34-2,2,.35A5.45,5.45,0,0,1,360,265m3.48-4.11a5.51,5.51,0,0,1-.48,1.47l-2.46-.43.56-3.16,2.41.43a5.06,5.06,0,0,1,0,1.69" transform="translate(-348.29 -250.1)"/><path class="cls-3" d="M383.88,285c.24,0,.33-.14.42-.55s.73-4.38.77-4.82.05-.49-.2-.56a3.93,3.93,0,0,0-.51-.08s0-.14,0-.15.6,0,1.14,0h1.94a5.72,5.72,0,0,0,1.07-.06.08.08,0,0,1,0,0,11.38,11.38,0,0,0-.33,1.31s-.15,0-.17,0a3.45,3.45,0,0,0,0-.59c0-.29-.13-.41-.51-.44s-1.23,0-1.46,0-.12.06-.13.13c-.1.44-.3,1.75-.42,2.51,0,0,0,.06,0,.06.5,0,1.15,0,1.46,0a.52.52,0,0,0,.48-.37,1.3,1.3,0,0,0,.15-.34.23.23,0,0,1,.18,0c-.05.18-.15.58-.19.84s-.09.7-.14,1a.26.26,0,0,1-.15,0c0-.12,0-.22,0-.35s-.08-.41-.33-.43-1.1,0-1.49,0a.07.07,0,0,0-.07.07c-.1.67-.28,1.93-.34,2.48,0,.15,0,.26.12.28a12.34,12.34,0,0,0,1.47.05,1.18,1.18,0,0,0,.91-.32,3.85,3.85,0,0,0,.59-.82.2.2,0,0,1,.14.06,5.26,5.26,0,0,1-.58,1.24c-.06.09-.17.11-.41.11-1,0-1.79,0-2.75,0-.74,0-1.13,0-1.3,0a.25.25,0,0,1,0-.17,3.65,3.65,0,0,0,.6-.08" transform="translate(-348.29 -250.1)"/><path class="cls-3" d="M389.63,282.15s0-.16,0-.19a2.65,2.65,0,0,1,1.2-.92c.16,0,.12.41,0,1-.08.37-.13.72-.2,1,0,0,0,0,0,0a5.93,5.93,0,0,1,1.74-1.79A1,1,0,0,1,393,281c.2,0,.26.29.08,1.18s-.3,1.54-.37,2.11c0,.15,0,.3.07.3s.25-.08.56-.46l0,0a1.25,1.25,0,0,1,0,.21,2.2,2.2,0,0,1-1.22,1c-.22,0-.18-.46-.07-1.05.15-.78.33-1.58.43-2.13.05-.33,0-.49-.13-.49s-.85.48-1.52,1.55a3,3,0,0,0-.34.9,1.65,1.65,0,0,0-.11.83,2.1,2.1,0,0,1-.65.39s-.1-.05-.09-.13c.06-.37.47-2.12.61-3.21,0-.14,0-.23-.05-.23s-.27.13-.53.39a0,0,0,0,1,0,0" transform="translate(-348.29 -250.1)"/><path class="cls-3" d="M400.87,281.91a3.49,3.49,0,0,1-1.22,2.7,2.79,2.79,0,0,1-1.59.74c-.29,0-.64-.22-.64-1a5.33,5.33,0,0,1,.11-1c.16-1,.72-3.9.83-4.53,0-.08,0-.21-.07-.21a1.55,1.55,0,0,0-.59.22.25.25,0,0,1,0-.17A3.91,3.91,0,0,1,399,278c.09,0,.1.14.06.38-.25,1.28-.64,3.2-.81,4.22,0,0,0,0,0,0a3.74,3.74,0,0,1,2.1-1.59c.27,0,.46.32.46.87m-1.45,2.58a3.7,3.7,0,0,0,.73-2.24c0-.41-.12-.64-.32-.64-.36,0-1,.59-1.38,1.18a2.76,2.76,0,0,0-.35,1.36c0,.47.16.77.54.77a1.13,1.13,0,0,0,.78-.43" transform="translate(-348.29 -250.1)"/><path class="cls-3" d="M405.81,284.22a.47.47,0,0,1,0,.2,2.23,2.23,0,0,1-1.16.93c-.17,0-.26-.21-.17-.84,0-.19.09-.63.14-.92,0,0,0,0,0,0-.56.87-1.48,1.77-1.93,1.77s-.48-.62-.48-1a3.78,3.78,0,0,1,.95-2.49,3,3,0,0,1,1.83-.84,4.23,4.23,0,0,1,.87.09,2.6,2.6,0,0,0-.23.64,19.77,19.77,0,0,0-.45,2.58c0,.22,0,.28.11.28s.26-.09.55-.44c0,0,0,0,0,0m-1.32-.87a3.23,3.23,0,0,0,.32-.85,10.06,10.06,0,0,1,.26-1,1.52,1.52,0,0,0-.63-.11,1.26,1.26,0,0,0-1.17.84,3.75,3.75,0,0,0-.4,1.7c0,.48.12.71.32.71s.73-.38,1.3-1.31m-.2-3.86a.33.33,0,0,1,0,.21.45.45,0,0,1-.22.36,1,1,0,0,1-.34,0,.34.34,0,0,1-.16-.32.35.35,0,0,1,.07-.21.55.55,0,0,1,.37-.13.34.34,0,0,1,.23.07m1.33,0a.39.39,0,0,1,0,.21.41.41,0,0,1-.22.36.88.88,0,0,1-.32,0,.35.35,0,0,1-.1-.53.57.57,0,0,1,.37-.13.32.32,0,0,1,.23.07" transform="translate(-348.29 -250.1)"/><path class="cls-3" d="M407.92,281.18s.05,0,.05-.06a9.67,9.67,0,0,1,.25-1,2.54,2.54,0,0,1,.77-.62s.06.07,0,.09a1.7,1.7,0,0,0-.23.52c-.06.21-.14.66-.2,1,0,0,0,.06,0,.06h1.56a.08.08,0,0,0,.07-.06c.13-.58.24-1.16.3-1.31a2.67,2.67,0,0,1,.77-.62s.07.07.05.09a1.26,1.26,0,0,0-.23.52c-.07.21-.2.95-.27,1.32,0,0,0,.06,0,.06a4.1,4.1,0,0,0,1.12-.09s0,.08,0,.1a1.14,1.14,0,0,1-.5.26,2.86,2.86,0,0,1-.67.09.07.07,0,0,0-.06.06c-.15.82-.35,2-.4,2.54s0,.56.15.56c.29,0,.66-.37.85-.62,0,0,0,0,0,0a.76.76,0,0,1,0,.21,2.48,2.48,0,0,1-1.44,1c-.18,0-.29-.23-.27-.69s.33-2.21.49-3.05a0,0,0,0,0,0-.06h-1.57a.06.06,0,0,0-.05.06c-.16.82-.36,2-.41,2.54s0,.56.16.56.63-.35.81-.6a0,0,0,0,1,0,0,.5.5,0,0,1,0,.21,2.49,2.49,0,0,1-1.43,1c-.18,0-.28-.23-.27-.69s.33-2.21.49-3.05a0,0,0,0,0,0-.06,5.77,5.77,0,0,1-.67,0v0a1.54,1.54,0,0,1,.38-.3Z" transform="translate(-348.29 -250.1)"/><path class="cls-3" d="M414.63,281.57c.27-.32.53-.53.71-.53a.39.39,0,0,1,.36.23.4.4,0,0,1,0,.11,1.55,1.55,0,0,1-.38.62.1.1,0,0,1-.1,0,.48.48,0,0,0-.38-.25c-.17,0-.53.47-.88,1.21a10.16,10.16,0,0,0-.41,1.33,1.89,1.89,0,0,0-.06.66,1.92,1.92,0,0,1-.67.38c-.05,0-.07-.06-.07-.1,0-.23.55-2.43.6-3.18,0-.14,0-.23-.05-.23a1.4,1.4,0,0,0-.58.4s0,0,0,0a.74.74,0,0,1,0-.17,3.51,3.51,0,0,1,1.24-1c.12,0,.14.2.06.78-.06.36-.13.64-.18.94h0a7.81,7.81,0,0,1,.76-1.19" transform="translate(-348.29 -250.1)"/><path class="cls-3" d="M419.18,281.58a1.49,1.49,0,0,1-.86,1.15,6.41,6.41,0,0,1-1.15.54.09.09,0,0,0-.05.07,1.85,1.85,0,0,0,0,.29c0,.73.2,1.12.68,1.12a1.6,1.6,0,0,0,1.25-.69,0,0,0,0,1,0,0,1.08,1.08,0,0,1-.05.21,2.53,2.53,0,0,1-1.76,1c-.61,0-.81-.62-.81-1.29a3.45,3.45,0,0,1,.82-2.3,2.59,2.59,0,0,1,1.44-.7.51.51,0,0,1,.48.54m-2,1.38c0,.06,0,.06,0,.06a3.48,3.48,0,0,0,.92-.4.91.91,0,0,0,.42-.79c0-.23-.12-.43-.36-.43s-.85.53-1,1.56" transform="translate(-348.29 -250.1)"/><path class="cls-3" d="M425.31,281.4s0-.06,0-.09a1.22,1.22,0,0,1,.57-.27c.09,0,.22.24.22.61A4.48,4.48,0,0,1,425,284a5.65,5.65,0,0,1-1.29,1.23.45.45,0,0,1-.27.11c-.1-.05-.15-.36-.15-.95s.07-1.92.08-2.39c0-.11,0-.25-.09-.25s-.29.13-.55.42c0,0,0,0,0,0a.79.79,0,0,1,0-.17,3.48,3.48,0,0,1,.69-.71c.22-.17.35-.24.44-.24s.2.29.17.9c0,.83-.06,1.72-.07,2.12a1.32,1.32,0,0,0,0,.57c0,.06.08.07.14,0a4.33,4.33,0,0,0,1.4-2.49,1.21,1.21,0,0,0-.26-.76" transform="translate(-348.29 -250.1)"/><path class="cls-3" d="M430.82,284.22a.47.47,0,0,1,0,.2,2.21,2.21,0,0,1-1.15.93c-.18,0-.26-.21-.18-.84,0-.19.09-.63.14-.92,0,0,0,0,0,0-.56.87-1.48,1.77-1.92,1.77s-.48-.62-.48-1a3.73,3.73,0,0,1,.95-2.49,3,3,0,0,1,1.83-.84,4.21,4.21,0,0,1,.86.09,2.6,2.6,0,0,0-.23.64,21.46,21.46,0,0,0-.44,2.58c0,.22,0,.28.1.28s.26-.09.55-.44c0,0,0,0,0,0m-1.32-.87a2.92,2.92,0,0,0,.32-.85c.12-.45.21-.88.26-1a1.46,1.46,0,0,0-.62-.11,1.28,1.28,0,0,0-1.18.84,3.73,3.73,0,0,0-.39,1.7c0,.48.11.71.32.71s.73-.38,1.29-1.31m-.2-3.86a.28.28,0,0,1,.05.21.47.47,0,0,1-.21.36,1,1,0,0,1-.35,0,.36.36,0,0,1-.15-.32.35.35,0,0,1,.06-.21.55.55,0,0,1,.37-.13.32.32,0,0,1,.23.07m1.33,0a.33.33,0,0,1,.05.21c0,.16-.1.32-.22.36a.92.92,0,0,1-.33,0,.37.37,0,0,1-.1-.53.58.58,0,0,1,.38-.13.31.31,0,0,1,.22.07" transform="translate(-348.29 -250.1)"/><path class="cls-3" d="M434.08,281.57c.27-.32.53-.53.71-.53a.39.39,0,0,1,.36.23.4.4,0,0,1,0,.11,1.46,1.46,0,0,1-.39.62.08.08,0,0,1-.09,0,.5.5,0,0,0-.38-.25c-.17,0-.54.47-.88,1.21a10.16,10.16,0,0,0-.41,1.33,2.19,2.19,0,0,0-.07.66,1.81,1.81,0,0,1-.66.38c-.06,0-.08-.06-.08-.1,0-.23.56-2.43.61-3.18,0-.14,0-.23-.05-.23a1.41,1.41,0,0,0-.59.4,0,0,0,0,1,0,0,.74.74,0,0,1,0-.17,3.7,3.7,0,0,1,1.24-1c.13,0,.15.2.06.78-.06.36-.12.64-.17.94h0a7.81,7.81,0,0,1,.76-1.19" transform="translate(-348.29 -250.1)"/><path class="cls-3" d="M436.69,281.82a3.2,3.2,0,0,1,1.6-.78,1.46,1.46,0,0,1,.47.06s0,0,0,0c.17-.78.35-1.82.39-2.13s0-.36-.08-.36a1.5,1.5,0,0,0-.62.2s0-.14,0-.17a4.43,4.43,0,0,1,1.38-.62c.1,0,.09.18.06.39-.35,1.83-1.1,5.44-1.1,6.11,0,.09,0,.2.09.2s.32-.15.6-.46a0,0,0,0,1,0,0,.83.83,0,0,1-.05.2,2.71,2.71,0,0,1-1.28,1c-.15,0-.17-.29-.1-.64s.07-.49.19-1.15a0,0,0,0,0,0,0c-.57.84-1.51,1.69-2,1.69s-.53-.62-.53-1.05a3.73,3.73,0,0,1,.9-2.48m1.48,1.68a2.06,2.06,0,0,0,.3-.74c.06-.3.18-.87.19-1s0-.14-.05-.17a1.06,1.06,0,0,0-.7-.21c-.94,0-1.41,1.52-1.41,2.6,0,.47.12.73.34.73s.8-.37,1.33-1.21" transform="translate(-348.29 -250.1)"/><path class="cls-3" d="M444.91,284.18a.58.58,0,0,1,0,.19,2.36,2.36,0,0,1-1.18,1c-.21,0-.25-.33-.12-1,.15-.8.36-1.81.47-2.39,0-.17,0-.25,0-.25a1.26,1.26,0,0,0-.5.33h0a.28.28,0,0,1,0-.18,2.76,2.76,0,0,1,1.16-.85c.14,0,.16.21.05.71-.14.75-.44,2.12-.49,2.6,0,.19,0,.27.09.27s.28-.15.55-.46l0,0m.13-4.73a.29.29,0,0,1,.07.2.47.47,0,0,1-.2.38.6.6,0,0,1-.37,0,.3.3,0,0,1-.16-.3.37.37,0,0,1,.06-.23.59.59,0,0,1,.39-.16c.11,0,.19,0,.21.07" transform="translate(-348.29 -250.1)"/><path class="cls-3" d="M449.61,278.8l1.55,0a2.82,2.82,0,0,0,.12.61c.25,1,1,4,1.12,4.31h0c.31-.45,2-3.41,2.53-4.39a3,3,0,0,0,.21-.53c.84,0,1.24,0,1.5,0a.25.25,0,0,1,0,.17l-.51.08c-.29.07-.34.22-.39.47-.13,1-.34,3.94-.38,4.72,0,.46,0,.64.23.71a4.94,4.94,0,0,0,.53.1.29.29,0,0,1,0,.16l-1.2,0-1.13,0s0-.14,0-.16l.51-.09c.13,0,.21-.1.26-.43.11-.62.38-4,.46-4.73h0c-.34.65-2.53,4.48-3,5.39a.31.31,0,0,1-.19,0c-.11-.9-1.1-5.09-1.16-5.29,0,0,0,0-.05,0-.25.93-.87,3.31-1.08,4.27-.08.45-.08.69.22.76a4.39,4.39,0,0,0,.52.1.23.23,0,0,1,0,.16c-.18,0-.61,0-1,0s-.91,0-1.1,0c0,0,0-.14,0-.16l.41-.08c.33-.06.44-.23.64-.8.29-.92,1.06-3.68,1.26-4.62a.35.35,0,0,0-.2-.47,5.89,5.89,0,0,0-.66-.11.31.31,0,0,1,0-.17" transform="translate(-348.29 -250.1)"/><path class="cls-3" d="M460.76,282.3a3.08,3.08,0,0,1-1.37,2.71,2.22,2.22,0,0,1-1,.34c-.62,0-.91-.56-.91-1.32a3.11,3.11,0,0,1,1-2.48,2.66,2.66,0,0,1,1.33-.51c.73,0,.94.67.94,1.26M458.84,285c.68,0,1.2-1.34,1.2-2.47,0-.65-.17-1.15-.69-1.15-.79,0-1.19,1.4-1.19,2.42,0,.83.21,1.2.68,1.2m.53-5.49a.33.33,0,0,1,.05.21.47.47,0,0,1-.21.36,1,1,0,0,1-.35,0,.36.36,0,0,1-.15-.32.35.35,0,0,1,.06-.21.55.55,0,0,1,.37-.13.32.32,0,0,1,.23.07m1.33,0a.33.33,0,0,1,.05.21c0,.16-.1.32-.22.36a.92.92,0,0,1-.33,0,.37.37,0,0,1-.1-.53.58.58,0,0,1,.38-.13.31.31,0,0,1,.22.07" transform="translate(-348.29 -250.1)"/><path class="cls-3" d="M462.58,278.68a4.13,4.13,0,0,1,1.32-.66c.1,0,.1.21,0,.55-.26,1.44-.95,5-1,5.66,0,.32,0,.42.08.42s.3-.08.62-.46l0,0a.9.9,0,0,1,0,.18,2.19,2.19,0,0,1-1.22,1c-.18,0-.27-.23-.14-1.1s.79-4.2.94-5.27c0-.22,0-.33-.07-.33a1.89,1.89,0,0,0-.59.21.52.52,0,0,1,0-.18" transform="translate(-348.29 -250.1)"/><path class="cls-3" d="M465,282.15s0-.16,0-.19a2.65,2.65,0,0,1,1.2-.92c.17,0,.12.41,0,1-.08.37-.13.72-.2,1,0,0,0,0,0,0a6,6,0,0,1,1.74-1.79,1.09,1.09,0,0,1,.55-.21c.2,0,.26.29.09,1.18s-.31,1.54-.38,2.11c0,.15,0,.3.07.3s.25-.08.57-.46l0,0a1.25,1.25,0,0,1,0,.21,2.24,2.24,0,0,1-1.22,1c-.23,0-.19-.46-.07-1.05.14-.78.32-1.58.42-2.13.05-.33,0-.49-.12-.49-.3,0-.86.48-1.52,1.55a3,3,0,0,0-.35.9,1.78,1.78,0,0,0-.11.83,2,2,0,0,1-.65.39c-.05,0-.1-.05-.09-.13.06-.37.47-2.12.61-3.21,0-.14,0-.23-.05-.23s-.27.13-.53.39a0,0,0,0,1,0,0" transform="translate(-348.29 -250.1)"/><path class="cls-3" d="M471,281.82a3.18,3.18,0,0,1,1.61-.78,1.39,1.39,0,0,1,.46.06s.05,0,.05,0c.16-.78.34-1.82.38-2.13s0-.36-.07-.36a1.53,1.53,0,0,0-.63.2s0-.14,0-.17a4.37,4.37,0,0,1,1.39-.62c.09,0,.08.18,0,.39-.34,1.83-1.09,5.44-1.09,6.11,0,.09,0,.2.08.2s.32-.15.61-.46a0,0,0,0,1,0,0,.8.8,0,0,1-.06.2,2.66,2.66,0,0,1-1.28,1c-.14,0-.16-.29-.1-.64s.07-.49.2-1.15a0,0,0,0,0,0,0c-.58.84-1.51,1.69-2,1.69s-.52-.62-.52-1.05a3.73,3.73,0,0,1,.89-2.48m1.48,1.68a1.89,1.89,0,0,0,.3-.74c.07-.3.18-.87.19-1s0-.14,0-.17a1.1,1.1,0,0,0-.71-.21c-.94,0-1.4,1.52-1.4,2.6,0,.47.11.73.34.73s.79-.37,1.32-1.21" transform="translate(-348.29 -250.1)"/><path class="cls-3" d="M478.85,284.22a.46.46,0,0,1,0,.2,2.21,2.21,0,0,1-1.15.93c-.18,0-.27-.21-.18-.83,0-.2.09-.64.14-.93,0,0,0,0,0,0-.56.87-1.48,1.77-1.92,1.77s-.48-.62-.48-1a3.77,3.77,0,0,1,.94-2.49,3,3,0,0,1,1.84-.84,4.21,4.21,0,0,1,.86.09,3.4,3.4,0,0,0-.23.64,23.82,23.82,0,0,0-.45,2.58c0,.22,0,.28.11.28s.26-.09.55-.44c0,0,0,0,0,0m-1.32-.87a2.92,2.92,0,0,0,.32-.85c.12-.45.21-.88.26-1a1.46,1.46,0,0,0-.62-.11,1.27,1.27,0,0,0-1.18.84,3.73,3.73,0,0,0-.39,1.7c0,.48.11.71.32.71s.73-.38,1.29-1.31" transform="translate(-348.29 -250.1)"/><path class="cls-3" d="M480.65,278.68A4.34,4.34,0,0,1,482,278c.11,0,.11.21,0,.55-.26,1.44-.94,5-1,5.66,0,.32,0,.42.09.42s.3-.08.61-.46l0,0a.9.9,0,0,1,0,.18,2.19,2.19,0,0,1-1.22,1c-.17,0-.27-.23-.13-1.1s.79-4.2.94-5.27c0-.22,0-.33-.08-.33a1.89,1.89,0,0,0-.59.21.52.52,0,0,1,0-.18" transform="translate(-348.29 -250.1)"/></svg>
