<?xml version="1.0" encoding="utf-8"?>
<!-- Generator: Adobe Illustrator 18.0.0, SVG Export Plug-In . SVG Version: 6.00 Build 0)  -->
<!DOCTYPE svg PUBLIC "-//W3C//DTD SVG 1.1//EN" "http://www.w3.org/Graphics/SVG/1.1/DTD/svg11.dtd" [
	<!ENTITY ns_extend "http://ns.adobe.com/Extensibility/1.0/">
	<!ENTITY ns_ai "http://ns.adobe.com/AdobeIllustrator/10.0/">
	<!ENTITY ns_graphs "http://ns.adobe.com/Graphs/1.0/">
	<!ENTITY ns_vars "http://ns.adobe.com/Variables/1.0/">
	<!ENTITY ns_imrep "http://ns.adobe.com/ImageReplacement/1.0/">
	<!ENTITY ns_sfw "http://ns.adobe.com/SaveForWeb/1.0/">
	<!ENTITY ns_custom "http://ns.adobe.com/GenericCustomNamespace/1.0/">
	<!ENTITY ns_adobe_xpath "http://ns.adobe.com/XPath/1.0/">
]>
<svg version="1.1" id="Lager_1" xmlns:x="&ns_extend;" xmlns:i="&ns_ai;" xmlns:graph="&ns_graphs;"
	 xmlns="http://www.w3.org/2000/svg" xmlns:xlink="http://www.w3.org/1999/xlink" x="0px" y="0px" viewBox="0 0 151 37.5"
	 enable-background="new 0 0 151 37.5" xml:space="preserve">
<metadata>
	<sfw  xmlns="&ns_sfw;">
		<slices></slices>
		<sliceSourceBounds  width="150" height="35.3" y="-285.5" x="348.3" bottomLeftOrigin="true"></sliceSourceBounds>
	</sfw>
</metadata>
<polygon points="32.4,23.1 32.4,11.7 32.4,11.7 28.9,23.1 27.8,23.1 24.3,11.7 24.3,11.7 24.3,23.1 23,23.1 23,10.6 25.2,10.6 
	28.3,20.7 28.4,20.7 31.5,10.6 33.7,10.6 33.7,23.1 "/>
<path d="M41.5,18.6c0,2.3-0.9,3.6-2.4,3.6c-1.5,0-2.4-1.3-2.4-3.6c0-2.3,0.9-3.6,2.4-3.6C40.6,15,41.5,16.3,41.5,18.6 M41.2,11.3
	h-1.5v1.6h1.5V11.3z M38.5,11.3H37v1.6h1.5V11.3z M42.8,18.6c0-2.6-1.2-4.7-3.7-4.7c-2.4,0-3.7,2.1-3.7,4.7c0,2.6,1.2,4.7,3.7,4.7
	C41.5,23.2,42.8,21.2,42.8,18.6"/>
<rect x="44.7" y="10.6" width="1.2" height="12.5"/>
<path d="M49.8,14.1v1.2h0c0.7-0.8,1.6-1.4,2.7-1.4c1.3,0,2.6,0.7,2.6,2.6v6.5h-1.2v-6.5c0-1.2-0.6-1.6-1.5-1.6c-0.9,0-2,0.8-2.6,1.4
	v6.7h-1.2v-9H49.8z"/>
<path d="M63,21c-0.9,0.9-1.5,1.2-2.3,1.2c-1.6,0-2.5-1.2-2.5-3.5c0-2.7,1.1-3.7,2.5-3.7c0.7,0,1.6,0.5,2.3,1.2V21z M63,10.6V15
	l-0.1,0c-0.7-0.6-1.5-1-2.4-1c-1.5,0-3.6,1.2-3.6,4.7c0,3.6,2.1,4.7,3.7,4.7c1.1,0,2-0.5,2.4-1.1l0.2,0.9h1.1
	c-0.1-0.7-0.1-1.3-0.1-2V10.6H63z"/>
<path d="M71.7,20.7c-0.7,0.8-1.9,1.5-2.8,1.5c-0.7,0-1.5-0.6-1.5-1.4c0-1.2,1.4-2.1,4.3-2.6V20.7z M67.5,16.4
	c0.2-0.6,0.9-1.4,2.3-1.4c1.1,0,1.9,0.4,1.9,1.6v0.5c-4,0.7-5.5,1.7-5.5,3.7c0,1.6,1.2,2.5,2.6,2.5c1.4,0,2.4-0.7,3-1.4l0.1,1.2h1.3
	c-0.1-0.5-0.2-0.9-0.2-1.9v-4.5c0-2-1.6-2.7-3.1-2.7c-1.7,0-2.8,0.9-3.4,1.9L67.5,16.4z"/>
<rect x="75.6" y="10.6" width="1.2" height="12.5"/>
<path d="M79.8,20.8c0.6,0.8,1.5,1.4,2.6,1.4c1.3,0,1.9-0.7,1.9-1.5c0-2.3-5.3-1.1-5.2-4.4c0.1-1.6,1.2-2.4,3-2.4
	c1.2,0,2.5,0.7,3.1,1.6l-0.9,0.8c-0.7-0.8-1.4-1.3-2.3-1.3c-1.1,0-1.6,0.5-1.6,1.3c0,2,5.2,0.9,5.2,4.3c0,1.7-1.5,2.6-3.1,2.6
	c-1.4,0-2.8-0.6-3.6-1.7L79.8,20.8z"/>
<path d="M88.9,17.1h2.4c2,0,3.3,0.9,3.3,2.5c0,1.6-1,2.2-3,2.2h-2.6V17.1z M87.5,23.1h3.9c3.4,0,4.5-1.5,4.5-3.3
	c0-1.6-1-2.8-2.4-3.1l0,0c1.5-0.5,2.1-1.5,2.1-2.9c0-1.7-1.3-3.1-3.5-3.1h-4.6V23.1z M88.9,11.8h3c1.6,0,2.4,0.7,2.4,2.1
	c0,1.1-0.8,2.1-2.9,2.1h-2.4V11.8z"/>
<path d="M103.3,18.6c0,2.3-0.9,3.6-2.4,3.6c-1.5,0-2.4-1.3-2.4-3.6c0-2.3,0.9-3.6,2.4-3.6C102.4,15,103.3,16.3,103.3,18.6
	 M104.6,18.6c0-2.6-1.2-4.7-3.7-4.7c-2.4,0-3.7,2.1-3.7,4.7c0,2.6,1.2,4.7,3.7,4.7C103.4,23.2,104.6,21.2,104.6,18.6"/>
<path d="M106.6,20.8c0.6,0.8,1.5,1.4,2.6,1.4c1.4,0,1.9-0.7,1.9-1.5c0-2.3-5.3-1.1-5.2-4.4c0.1-1.6,1.2-2.4,3-2.4
	c1.2,0,2.5,0.7,3.1,1.6l-0.9,0.8c-0.7-0.8-1.3-1.3-2.3-1.3c-1.1,0-1.6,0.5-1.6,1.3c0,2,5.2,0.9,5.2,4.3c0,1.7-1.5,2.6-3.1,2.6
	c-1.4,0-2.8-0.6-3.6-1.7L106.6,20.8z"/>
<path d="M114.9,14.1v-3h1.2v3h2.1v1.1h-2.1v6.4c0,0.4,0.3,0.6,1,0.6c0.4,0,0.8,0,1.1-0.1v1c-0.2,0.1-0.7,0.1-1.5,0.1
	c-1.3,0-1.9-0.3-1.9-1.5v-6.6h-1.5v-1.1H114.9z"/>
<path d="M125,20.7c-0.7,0.8-1.9,1.5-2.8,1.5c-0.7,0-1.5-0.6-1.5-1.4c0-1.2,1.4-2.1,4.3-2.6V20.7z M125.1,11.3h-1.5v1.6h1.5V11.3z
	 M122.4,11.3h-1.5v1.6h1.5V11.3z M120.8,16.4c0.2-0.6,0.9-1.4,2.3-1.4c1.1,0,1.9,0.4,1.9,1.6v0.5c-4,0.7-5.5,1.7-5.5,3.7
	c0,1.6,1.2,2.5,2.6,2.5c1.4,0,2.4-0.7,3-1.4l0.1,1.2h1.3c-0.1-0.5-0.2-0.9-0.2-1.9v-4.5c0-2-1.6-2.7-3.1-2.7c-1.7,0-2.8,0.9-3.4,1.9
	L120.8,16.4z"/>
<path d="M134.2,21c-0.9,0.9-1.5,1.2-2.3,1.2c-1.6,0-2.5-1.2-2.5-3.5c0-2.7,1.1-3.7,2.5-3.7c0.7,0,1.6,0.5,2.3,1.2V21z M134.2,10.6
	V15l-0.1,0c-0.7-0.6-1.5-1-2.4-1c-1.5,0-3.6,1.2-3.6,4.7c0,3.6,2.1,4.7,3.7,4.7c1.1,0,2-0.5,2.4-1.1l0.2,0.9h1.1
	c-0.1-0.7-0.1-1.3-0.1-2V10.6H134.2z"/>
<path d="M138.5,17.7c0.1-1.6,0.9-2.7,2.4-2.7c1.3,0,2.1,1.1,2.1,2.7H138.5z M143.6,20.6c-0.5,0.9-1.4,1.5-2.5,1.5
	c-1.5,0-2.7-1.4-2.7-3.4h5.8V18c0-2.9-1.5-4.1-3.4-4.1c-2.2,0-3.7,1.8-3.7,4.7c0,3.3,1.9,4.7,3.9,4.7c2,0,2.9-1.1,3.4-2.1
	L143.6,20.6z"/>
<path d="M146.4,14.1h1.2v1.8h0c0.7-1.2,1.4-1.9,2.9-1.9v1.2c-1.6,0-2.4,1.1-3,2.9v5h-1.2V14.1z"/>
<path fill="#E5352C" d="M19.1,11.4c0-0.5,0-1-0.1-1.5l0,0c0-0.2-0.1-0.3-0.1-0.5c-0.1-0.3-0.1-0.5-0.2-0.7l0,0
	c-0.1-0.5-0.3-0.9-0.5-1.4l0.9-1.1l-1-1.4l-1.4,0.5c-0.3-0.4-0.7-0.7-1.1-1l0,0c-0.2-0.1-0.3-0.2-0.5-0.3c-0.2-0.1-0.4-0.2-0.6-0.3
	l0,0c-0.4-0.2-0.9-0.4-1.3-0.6l-0.1-1.5l-1.7-0.3l-0.6,1.3c-0.2,0-0.5,0-0.7,0v0c-0.1,0-0.2,0-0.3,0c-0.1,0-0.1,0-0.2,0c0,0,0,0,0,0
	c-0.1,0-0.2,0-0.3,0l0,0c-0.2,0-0.5,0.1-0.7,0.1C8.4,2.8,8.2,2.9,8,3l0,0C7.5,3.1,7.1,3.3,6.7,3.5L5.6,2.5l-1.4,1l0.5,1.4
	C4.5,5.1,4.3,5.2,4.2,5.4C4,5.6,3.9,5.7,3.7,5.9c0,0,0,0,0,0.1C3.5,6.2,3.4,6.4,3.3,6.6C3.2,6.7,3,6.9,2.9,7.1l0,0
	C2.7,7.6,2.5,8,2.4,8.5L0.9,8.6l-0.3,1.7L2,10.9c0,0.2,0,0.4,0,0.7l0,0C2,11.8,2,12,2,12.3c0,0,0,0,0,0.1c0,0.2,0.1,0.5,0.1,0.7
	c0,0.2,0.1,0.4,0.2,0.6l0,0c0.1,0.5,0.3,0.9,0.6,1.4l-1,1.1l1,1.4l1.4-0.5c0.3,0.4,0.7,0.7,1.1,1l0,0c0.2,0.1,0.3,0.2,0.5,0.4
	c0.2,0.1,0.4,0.2,0.6,0.3l0,0c0.4,0.2,0.9,0.4,1.3,0.6l0.1,1.5L9.6,21l0.7-1.3c0.5,0,1,0,1.5-0.1v0c0.2,0,0.4-0.1,0.6-0.1
	c0.3-0.1,0.6-0.2,0.9-0.3c0,0,0.1,0,0.1,0c0.1,0,0.1,0,0.2-0.1c0.3-0.1,0.5-0.2,0.8-0.3l1.1,0.9l1.4-1l-0.5-1.4
	c0.2-0.2,0.4-0.3,0.5-0.5l0,0c0.1-0.2,0.3-0.3,0.4-0.5c0,0,0,0,0.1-0.1c0.1-0.2,0.3-0.4,0.4-0.6c0.1-0.2,0.2-0.4,0.3-0.5l0,0
	c0.2-0.4,0.4-0.9,0.6-1.3l0,0l1.5-0.1l0.3-1.7L19.1,11.4z M13.9,7c0.7,0.6,1.2,1.3,1.6,2.2l-1.9-0.3L13.9,7z M9.9,5.8
	c0.5-0.1,1,0,1.5,0c0.5,0.1,1,0.3,1.4,0.5l-0.4,2.3l-3-0.5L9.9,5.8z M8.7,6.1L8.4,7.9L6.5,7.6C7.1,6.9,7.9,6.4,8.7,6.1 M7.1,15.3
	c-0.7-0.6-1.3-1.4-1.6-2.3l1.9,0.3L7.1,15.3z M7.6,12.2l-2.4-0.4c-0.1-0.5,0-1,0-1.6c0.1-0.6,0.3-1.1,0.6-1.6L8.2,9L7.6,12.2z
	 M11.1,16.5c-0.5,0.1-1,0-1.5,0c-0.5-0.1-1-0.3-1.5-0.5l0.4-2.4l3,0.5L11.1,16.5z M11.7,12.9l-3-0.5l0.6-3.2l3,0.5L11.7,12.9z
	 M12.3,16.2l0.3-2l2,0.3C14,15.3,13.2,15.9,12.3,16.2 M15.8,12.1c-0.1,0.5-0.3,1-0.5,1.5l-2.5-0.4l0.6-3.2l2.4,0.4
	C15.9,10.9,15.9,11.5,15.8,12.1"/>
<g>
	<path fill="#707173" d="M36.2,36.1c0.2-0.1,0.3-0.1,0.4-0.6c0.1-0.5,0.7-4.4,0.8-4.8c0-0.3,0.1-0.5-0.2-0.6c-0.1,0-0.3-0.1-0.5-0.1
		c0,0,0-0.1,0-0.1c0.1,0,0.6,0,1.1,0h1.9c0.4,0,0.8,0,1.1-0.1c0,0,0,0,0,0c-0.1,0.3-0.2,0.9-0.3,1.3c0,0-0.2,0-0.2,0
		c0-0.2,0-0.4,0-0.6c0-0.3-0.1-0.4-0.5-0.4c-0.3,0-1.2,0-1.5,0c-0.1,0-0.1,0.1-0.1,0.1c-0.1,0.4-0.3,1.7-0.4,2.5c0,0,0,0.1,0,0.1
		c0.5,0,1.2,0,1.5,0c0.3,0,0.4-0.2,0.5-0.4c0.1-0.1,0.1-0.2,0.1-0.3c0,0,0.2,0,0.2,0c-0.1,0.2-0.1,0.6-0.2,0.8
		c-0.1,0.3-0.1,0.7-0.1,1c0,0-0.1,0-0.2,0c0-0.1,0-0.2,0-0.4c0-0.3-0.1-0.4-0.3-0.4c-0.3,0-1.1,0-1.5,0c0,0-0.1,0-0.1,0.1
		c-0.1,0.7-0.3,1.9-0.3,2.5c0,0.2,0,0.3,0.1,0.3c0.2,0,0.7,0,1.5,0.1c0.5,0,0.7-0.1,0.9-0.3c0.2-0.2,0.4-0.5,0.6-0.8
		c0,0,0.1,0,0.1,0.1c-0.1,0.3-0.3,0.9-0.6,1.2c-0.1,0.1-0.2,0.1-0.4,0.1c-1,0-1.8,0-2.7,0c-0.7,0-1.1,0-1.3,0c0,0,0-0.1,0-0.2
		C35.9,36.2,36,36.2,36.2,36.1"/>
	<path fill="#707173" d="M42,33.3c0,0,0-0.2,0-0.2c0.5-0.6,1-0.9,1.2-0.9c0.2,0,0.1,0.4,0,1c-0.1,0.4-0.1,0.7-0.2,1c0,0,0,0,0,0
		c0.6-0.9,1.3-1.5,1.7-1.8c0.2-0.1,0.4-0.2,0.6-0.2c0.2,0,0.3,0.3,0.1,1.2c-0.1,0.8-0.3,1.5-0.4,2.1c0,0.2,0,0.3,0.1,0.3
		c0.1,0,0.2-0.1,0.6-0.5c0,0,0,0,0,0c0,0,0,0.2,0,0.2c-0.4,0.6-1,0.9-1.2,0.9c-0.2,0-0.2-0.5-0.1-1.1c0.1-0.8,0.3-1.6,0.4-2.1
		c0.1-0.3,0-0.5-0.1-0.5c-0.3,0-0.9,0.5-1.5,1.6c-0.1,0.2-0.2,0.5-0.3,0.9c-0.1,0.4-0.2,0.7-0.1,0.8c-0.1,0.1-0.6,0.4-0.6,0.4
		c-0.1,0-0.1-0.1-0.1-0.1c0.1-0.4,0.5-2.1,0.6-3.2c0-0.1,0-0.2-0.1-0.2C42.4,32.9,42.2,33.1,42,33.3C42,33.3,42,33.3,42,33.3"/>
	<path fill="#707173" d="M53.2,33.1c0,1.2-0.6,2.1-1.2,2.7c-0.4,0.4-1,0.7-1.6,0.7c-0.3,0-0.6-0.2-0.6-1c0-0.4,0.1-0.8,0.1-1
		c0.2-1,0.7-3.9,0.8-4.5c0-0.1,0-0.2-0.1-0.2c-0.1,0-0.3,0.1-0.6,0.2c0,0,0-0.2,0-0.2c0.6-0.4,1.1-0.7,1.3-0.7
		c0.1,0,0.1,0.1,0.1,0.4c-0.2,1.3-0.6,3.2-0.8,4.2c0,0,0,0,0,0c0.7-0.9,1.6-1.6,2.1-1.6C53,32.2,53.2,32.5,53.2,33.1 M51.8,35.7
		c0.5-0.6,0.7-1.6,0.7-2.2c0-0.4-0.1-0.6-0.3-0.6c-0.4,0-1,0.6-1.4,1.2c-0.2,0.4-0.4,1-0.4,1.4c0,0.5,0.2,0.8,0.5,0.8
		C51.2,36.1,51.5,35.9,51.8,35.7"/>
	<path fill="#707173" d="M58.1,35.4c0,0,0,0.2,0,0.2c-0.3,0.5-0.9,0.9-1.2,0.9c-0.2,0-0.3-0.2-0.2-0.8c0-0.2,0.1-0.6,0.1-0.9
		c0,0,0,0,0,0c-0.6,0.9-1.5,1.8-1.9,1.8c-0.4,0-0.5-0.6-0.5-1c0-0.9,0.3-1.8,0.9-2.5c0.3-0.3,1.1-0.8,1.8-0.8c0.3,0,0.6,0,0.9,0.1
		c-0.2,0.4-0.2,0.5-0.2,0.6c-0.2,0.6-0.4,2.1-0.4,2.6c0,0.2,0,0.3,0.1,0.3C57.7,35.8,57.8,35.7,58.1,35.4
		C58.1,35.4,58.1,35.4,58.1,35.4 M56.8,34.5c0.1-0.3,0.3-0.6,0.3-0.9c0.1-0.4,0.2-0.9,0.3-1c-0.1-0.1-0.4-0.1-0.6-0.1
		c-0.6,0-0.9,0.3-1.2,0.8c-0.3,0.6-0.4,1.2-0.4,1.7c0,0.5,0.1,0.7,0.3,0.7C55.8,35.8,56.3,35.4,56.8,34.5 M56.6,30.7
		c0,0.1,0.1,0.2,0.1,0.2c0,0.2-0.1,0.3-0.2,0.4c-0.1,0-0.3,0-0.3,0C56,31.2,56,31.1,56,30.9c0-0.1,0-0.2,0.1-0.2
		c0.1-0.1,0.3-0.1,0.4-0.1C56.5,30.6,56.6,30.6,56.6,30.7 M58,30.7c0,0.1,0.1,0.2,0,0.2c0,0.2-0.1,0.3-0.2,0.4c-0.1,0-0.3,0-0.3,0
		c-0.1-0.1-0.2-0.2-0.2-0.3c0-0.1,0-0.2,0.1-0.2c0.1-0.1,0.3-0.1,0.4-0.1C57.8,30.6,57.9,30.6,58,30.7"/>
	<path fill="#707173" d="M60.3,32.4C60.3,32.4,60.3,32.3,60.3,32.4c0.2-0.6,0.2-0.9,0.3-1.1c0.1-0.1,0.5-0.5,0.8-0.6
		c0,0,0.1,0.1,0,0.1c-0.1,0.1-0.2,0.3-0.2,0.5c-0.1,0.2-0.1,0.7-0.2,1c0,0,0,0.1,0,0.1h1.6c0,0,0.1,0,0.1-0.1
		c0.1-0.6,0.2-1.2,0.3-1.3c0.1-0.1,0.5-0.5,0.8-0.6c0,0,0.1,0.1,0,0.1c-0.1,0.1-0.2,0.3-0.2,0.5c-0.1,0.2-0.2,0.9-0.3,1.3
		c0,0,0,0.1,0,0.1c0.4,0,1-0.1,1.1-0.1c0,0,0,0.1,0,0.1c0,0.1-0.3,0.2-0.5,0.3c-0.2,0-0.4,0.1-0.7,0.1c0,0-0.1,0-0.1,0.1
		c-0.2,0.8-0.4,2-0.4,2.5c0,0.4,0,0.6,0.2,0.6c0.3,0,0.7-0.4,0.8-0.6c0,0,0,0,0,0c0,0,0,0.2,0,0.2c-0.3,0.4-1,1-1.4,1
		c-0.2,0-0.3-0.2-0.3-0.7c0-0.4,0.3-2.2,0.5-3c0,0,0-0.1,0-0.1l-1.6,0c0,0-0.1,0-0.1,0.1c-0.2,0.8-0.4,2-0.4,2.5
		c0,0.4,0,0.6,0.2,0.6c0.3,0,0.6-0.4,0.8-0.6c0,0,0,0,0,0c0,0,0,0.2,0,0.2c-0.3,0.4-1,1-1.4,1c-0.2,0-0.3-0.2-0.3-0.7
		c0-0.4,0.3-2.2,0.5-3c0,0,0-0.1,0-0.1c-0.3,0-0.5,0-0.7,0v-0.1c0.1-0.1,0.3-0.3,0.4-0.3H60.3z"/>
	<path fill="#707173" d="M67,32.7c0.3-0.3,0.5-0.5,0.7-0.5c0.1,0,0.3,0.1,0.4,0.2c0,0,0,0.1,0,0.1c0,0.2-0.3,0.5-0.4,0.6
		c0,0-0.1,0-0.1,0c-0.1-0.2-0.2-0.3-0.4-0.3c-0.2,0-0.5,0.5-0.9,1.2c-0.1,0.3-0.3,0.9-0.4,1.3c0,0.2-0.1,0.5-0.1,0.7
		c-0.1,0.1-0.6,0.4-0.7,0.4c-0.1,0-0.1-0.1-0.1-0.1c0-0.2,0.6-2.4,0.6-3.2c0-0.1,0-0.2-0.1-0.2c-0.1,0-0.3,0.1-0.6,0.4c0,0,0,0,0,0
		c0,0,0-0.1,0-0.2c0.4-0.5,1.1-1,1.2-1c0.1,0,0.1,0.2,0.1,0.8c-0.1,0.4-0.1,0.6-0.2,0.9c0,0,0,0,0,0C66.4,33.5,66.7,33.1,67,32.7"/>
	<path fill="#707173" d="M71.5,32.7c0,0.5-0.4,0.9-0.9,1.2c-0.4,0.2-0.8,0.4-1.2,0.5c0,0-0.1,0.1-0.1,0.1c0,0.1,0,0.1,0,0.3
		c0,0.7,0.2,1.1,0.7,1.1c0.3,0,0.7-0.1,1.2-0.7c0,0,0,0,0,0c0,0,0,0.2-0.1,0.2c-0.4,0.6-1.2,1-1.8,1c-0.6,0-0.8-0.6-0.8-1.3
		c0-0.8,0.3-1.8,0.8-2.3c0.4-0.4,1.1-0.7,1.4-0.7C71.3,32.2,71.5,32.5,71.5,32.7 M69.5,34.1C69.5,34.2,69.5,34.2,69.5,34.1
		c0.3,0,0.7-0.2,0.9-0.3c0.2-0.2,0.4-0.4,0.4-0.8c0-0.2-0.1-0.4-0.4-0.4C70.1,32.6,69.7,33.1,69.5,34.1"/>
	<path fill="#707173" d="M77.6,32.6C77.6,32.5,77.6,32.5,77.6,32.6c0.2-0.2,0.5-0.4,0.6-0.4c0.1,0,0.2,0.2,0.2,0.6
		c0,0.8-0.6,1.7-1.1,2.4c-0.6,0.7-1,1.1-1.3,1.2c-0.1,0.1-0.2,0.1-0.3,0.1c-0.1-0.1-0.1-0.4-0.1-0.9c0-0.6,0.1-1.9,0.1-2.4
		c0-0.1,0-0.2-0.1-0.2c-0.1,0-0.3,0.1-0.6,0.4c0,0,0,0,0,0c0,0,0-0.2,0-0.2c0.1-0.2,0.4-0.5,0.7-0.7c0.2-0.2,0.3-0.2,0.4-0.2
		c0.1,0,0.2,0.3,0.2,0.9c0,0.8-0.1,1.7-0.1,2.1c0,0.3,0,0.5,0,0.6c0,0.1,0.1,0.1,0.1,0c0.5-0.4,1.4-1.7,1.4-2.5
		C77.9,33,77.8,32.8,77.6,32.6"/>
	<path fill="#707173" d="M83.2,35.4c0,0,0,0.2,0,0.2c-0.3,0.5-0.9,0.9-1.2,0.9c-0.2,0-0.3-0.2-0.2-0.8c0-0.2,0.1-0.6,0.1-0.9
		c0,0,0,0,0,0c-0.6,0.9-1.5,1.8-1.9,1.8c-0.4,0-0.5-0.6-0.5-1c0-0.9,0.3-1.8,0.9-2.5c0.3-0.3,1.1-0.8,1.8-0.8c0.3,0,0.6,0,0.9,0.1
		c-0.2,0.4-0.2,0.5-0.2,0.6c-0.2,0.6-0.4,2.1-0.4,2.6c0,0.2,0,0.3,0.1,0.3C82.7,35.8,82.8,35.7,83.2,35.4
		C83.1,35.4,83.2,35.4,83.2,35.4 M81.8,34.5c0.1-0.3,0.3-0.6,0.3-0.9c0.1-0.4,0.2-0.9,0.3-1c-0.1-0.1-0.4-0.1-0.6-0.1
		c-0.6,0-0.9,0.3-1.2,0.8c-0.3,0.6-0.4,1.2-0.4,1.7c0,0.5,0.1,0.7,0.3,0.7C80.8,35.8,81.3,35.4,81.8,34.5 M81.6,30.7
		c0,0.1,0.1,0.2,0.1,0.2c0,0.2-0.1,0.3-0.2,0.4c-0.1,0-0.3,0-0.3,0C81,31.2,81,31.1,81,30.9c0-0.1,0-0.2,0.1-0.2
		c0.1-0.1,0.2-0.1,0.4-0.1C81.5,30.6,81.6,30.6,81.6,30.7 M83,30.7c0,0.1,0.1,0.2,0,0.2c0,0.2-0.1,0.3-0.2,0.4c-0.1,0-0.3,0-0.3,0
		c-0.1-0.1-0.2-0.2-0.2-0.3c0-0.1,0-0.2,0.1-0.2c0.1-0.1,0.3-0.1,0.4-0.1C82.9,30.6,82.9,30.6,83,30.7"/>
	<path fill="#707173" d="M86.4,32.7c0.3-0.3,0.5-0.5,0.7-0.5c0.1,0,0.3,0.1,0.4,0.2c0,0,0,0.1,0,0.1c0,0.2-0.3,0.5-0.4,0.6
		c0,0-0.1,0-0.1,0c-0.1-0.2-0.2-0.3-0.4-0.3c-0.2,0-0.5,0.5-0.9,1.2c-0.1,0.3-0.3,0.9-0.4,1.3c0,0.2-0.1,0.5-0.1,0.7
		c-0.1,0.1-0.6,0.4-0.7,0.4c-0.1,0-0.1-0.1-0.1-0.1c0-0.2,0.6-2.4,0.6-3.2c0-0.1,0-0.2-0.1-0.2c-0.1,0-0.3,0.1-0.6,0.4c0,0,0,0,0,0
		c0,0,0-0.1,0-0.2c0.4-0.5,1.1-1,1.2-1c0.1,0,0.1,0.2,0.1,0.8c-0.1,0.4-0.1,0.6-0.2,0.9c0,0,0,0,0,0C85.9,33.5,86.1,33.1,86.4,32.7"
		/>
	<path fill="#707173" d="M89,33c0.4-0.4,1.3-0.8,1.6-0.8c0.3,0,0.4,0,0.5,0.1c0,0,0,0,0,0c0.2-0.8,0.3-1.8,0.4-2.1
		c0-0.3,0-0.4-0.1-0.4c-0.1,0-0.3,0-0.6,0.2c0,0,0-0.1,0-0.2c0.4-0.3,1.2-0.6,1.4-0.6c0.1,0,0.1,0.2,0.1,0.4
		c-0.3,1.8-1.1,5.4-1.1,6.1c0,0.1,0,0.2,0.1,0.2c0.1,0,0.3-0.2,0.6-0.5c0,0,0,0,0,0c0,0.1,0,0.2-0.1,0.2c-0.4,0.5-1.1,1-1.3,1
		c-0.1,0-0.2-0.3-0.1-0.6c0-0.2,0.1-0.5,0.2-1.1c0,0,0,0,0,0c-0.6,0.8-1.5,1.7-2,1.7c-0.4,0-0.5-0.6-0.5-1.1
		C88.1,34.6,88.5,33.6,89,33 M90.5,34.7c0.1-0.2,0.2-0.4,0.3-0.7c0.1-0.3,0.2-0.9,0.2-1c0-0.1,0-0.1,0-0.2c-0.2-0.2-0.5-0.2-0.7-0.2
		c-0.9,0-1.4,1.5-1.4,2.6c0,0.5,0.1,0.7,0.3,0.7C89.4,35.9,90,35.5,90.5,34.7"/>
	<path fill="#707173" d="M97.2,35.3c0,0,0,0.2,0,0.2c-0.5,0.7-1,1-1.2,1c-0.2,0-0.2-0.3-0.1-1c0.2-0.8,0.4-1.8,0.5-2.4
		c0-0.2,0-0.3,0-0.3c-0.1,0-0.3,0.2-0.5,0.3c0,0,0,0,0,0c0,0,0-0.2,0-0.2c0.4-0.4,1-0.9,1.2-0.9c0.1,0,0.2,0.2,0.1,0.7
		c-0.1,0.8-0.4,2.1-0.5,2.6c0,0.2,0,0.3,0.1,0.3C96.8,35.8,96.9,35.6,97.2,35.3C97.2,35.3,97.2,35.3,97.2,35.3 M97.4,30.6
		c0.1,0.1,0.1,0.2,0.1,0.2c0,0.2-0.1,0.3-0.2,0.4c-0.1,0.1-0.3,0.1-0.4,0c-0.1,0-0.2-0.2-0.2-0.3c0-0.1,0-0.2,0.1-0.2
		c0.1-0.1,0.2-0.2,0.4-0.2C97.3,30.6,97.4,30.6,97.4,30.6"/>
	<path fill="#707173" d="M101.9,30c0.3,0,1,0,1.5,0c0,0.2,0.1,0.3,0.1,0.6c0.3,1,1,4,1.1,4.3h0c0.3-0.5,2-3.4,2.5-4.4
		c0.1-0.2,0.2-0.4,0.2-0.5c0.8,0,1.2,0,1.5,0c0,0,0,0.1,0,0.2c-0.2,0-0.4,0.1-0.5,0.1c-0.3,0.1-0.3,0.2-0.4,0.5
		c-0.1,1-0.3,3.9-0.4,4.7c0,0.5,0,0.6,0.2,0.7c0.2,0.1,0.4,0.1,0.5,0.1c0,0,0,0.1,0,0.2c-0.2,0-0.9,0-1.2,0c-0.2,0-1,0-1.1,0
		c0,0,0-0.1,0-0.2c0.2,0,0.4-0.1,0.5-0.1c0.1-0.1,0.2-0.1,0.3-0.4c0.1-0.6,0.4-4,0.5-4.7c0,0,0,0,0,0c-0.3,0.6-2.5,4.5-3,5.4
		c0,0-0.2,0-0.2,0c-0.1-0.9-1.1-5.1-1.2-5.3c0,0,0,0-0.1,0c-0.2,0.9-0.9,3.3-1.1,4.3c-0.1,0.4-0.1,0.7,0.2,0.8
		c0.1,0,0.3,0.1,0.5,0.1c0,0,0,0.1,0,0.2c-0.2,0-0.6,0-1,0c-0.5,0-0.9,0-1.1,0c0,0,0-0.1,0-0.2c0.1,0,0.3,0,0.4-0.1
		c0.3-0.1,0.4-0.2,0.6-0.8c0.3-0.9,1.1-3.7,1.3-4.6c0-0.2,0-0.4-0.2-0.5c-0.1,0-0.4-0.1-0.7-0.1C101.9,30.1,101.9,30,101.9,30"/>
	<path fill="#707173" d="M113.1,33.5c0,1-0.4,2.2-1.4,2.7c-0.4,0.2-0.8,0.3-1,0.3c-0.6,0-0.9-0.6-0.9-1.3c0-0.9,0.3-1.9,1-2.5
		c0.4-0.3,1-0.5,1.3-0.5C112.9,32.2,113.1,32.9,113.1,33.5 M111.2,36.1c0.7,0,1.2-1.3,1.2-2.5c0-0.6-0.2-1.1-0.7-1.1
		c-0.8,0-1.2,1.4-1.2,2.4C110.5,35.8,110.7,36.1,111.2,36.1 M111.7,30.7c0,0.1,0.1,0.2,0.1,0.2c0,0.2-0.1,0.3-0.2,0.4
		c-0.1,0-0.3,0-0.3,0c-0.1-0.1-0.2-0.2-0.2-0.3c0-0.1,0-0.2,0.1-0.2c0.1-0.1,0.2-0.1,0.4-0.1C111.6,30.6,111.7,30.6,111.7,30.7
		 M113,30.7c0,0.1,0.1,0.2,0,0.2c0,0.2-0.1,0.3-0.2,0.4c-0.1,0-0.3,0-0.3,0c-0.1-0.1-0.2-0.2-0.2-0.3c0-0.1,0-0.2,0.1-0.2
		c0.1-0.1,0.3-0.1,0.4-0.1C112.9,30.6,113,30.6,113,30.7"/>
	<path fill="#707173" d="M114.9,29.8c0.5-0.3,1.1-0.7,1.3-0.7c0.1,0,0.1,0.2,0,0.6c-0.3,1.4-0.9,5-1,5.7c0,0.3,0,0.4,0.1,0.4
		c0.1,0,0.3-0.1,0.6-0.5c0,0,0,0,0,0c0,0,0,0.2,0,0.2c-0.4,0.6-0.9,1-1.2,1c-0.2,0-0.3-0.2-0.1-1.1c0.2-1,0.8-4.2,0.9-5.3
		c0-0.2,0-0.3-0.1-0.3c-0.1,0-0.3,0.1-0.6,0.2C114.9,30,114.9,29.8,114.9,29.8"/>
	<path fill="#707173" d="M117.3,33.3c0,0,0-0.2,0-0.2c0.5-0.6,1-0.9,1.2-0.9c0.2,0,0.1,0.4,0,1c-0.1,0.4-0.1,0.7-0.2,1c0,0,0,0,0,0
		c0.6-0.9,1.3-1.5,1.7-1.8c0.2-0.1,0.4-0.2,0.6-0.2c0.2,0,0.3,0.3,0.1,1.2c-0.1,0.8-0.3,1.5-0.4,2.1c0,0.2,0,0.3,0.1,0.3
		c0.1,0,0.2-0.1,0.6-0.5c0,0,0,0,0,0c0,0,0,0.2,0,0.2c-0.4,0.6-1,0.9-1.2,0.9c-0.2,0-0.2-0.5-0.1-1.1c0.1-0.8,0.3-1.6,0.4-2.1
		c0.1-0.3,0-0.5-0.1-0.5c-0.3,0-0.9,0.5-1.5,1.6c-0.1,0.2-0.3,0.5-0.3,0.9c-0.1,0.4-0.2,0.7-0.1,0.8c-0.1,0.1-0.6,0.4-0.6,0.4
		c-0.1,0-0.1-0.1-0.1-0.1c0.1-0.4,0.5-2.1,0.6-3.2c0-0.1,0-0.2-0.1-0.2C117.8,32.9,117.6,33.1,117.3,33.3
		C117.3,33.3,117.3,33.3,117.3,33.3"/>
	<path fill="#707173" d="M123.3,33c0.4-0.4,1.3-0.8,1.6-0.8c0.3,0,0.4,0,0.5,0.1c0,0,0,0,0,0c0.2-0.8,0.3-1.8,0.4-2.1
		c0-0.3,0-0.4-0.1-0.4c-0.1,0-0.3,0-0.6,0.2c0,0,0-0.1,0-0.2c0.4-0.3,1.2-0.6,1.4-0.6c0.1,0,0.1,0.2,0.1,0.4
		c-0.3,1.8-1.1,5.4-1.1,6.1c0,0.1,0,0.2,0.1,0.2c0.1,0,0.3-0.2,0.6-0.5c0,0,0,0,0,0c0,0.1,0,0.2-0.1,0.2c-0.4,0.5-1,1-1.3,1
		c-0.1,0-0.2-0.3-0.1-0.6c0-0.2,0.1-0.5,0.2-1.1c0,0,0,0,0,0c-0.6,0.8-1.5,1.7-2,1.7c-0.4,0-0.5-0.6-0.5-1.1
		C122.4,34.6,122.7,33.6,123.3,33 M124.8,34.7c0.1-0.2,0.2-0.4,0.3-0.7c0.1-0.3,0.2-0.9,0.2-1c0-0.1,0-0.1,0-0.2
		c-0.2-0.2-0.5-0.2-0.7-0.2c-0.9,0-1.4,1.5-1.4,2.6c0,0.5,0.1,0.7,0.3,0.7C123.7,35.9,124.2,35.5,124.8,34.7"/>
	<path fill="#707173" d="M131.2,35.4c0,0,0,0.2,0,0.2c-0.3,0.5-0.9,0.9-1.2,0.9c-0.2,0-0.3-0.2-0.2-0.8c0-0.2,0.1-0.6,0.1-0.9
		c0,0,0,0,0,0c-0.6,0.9-1.5,1.8-1.9,1.8c-0.4,0-0.5-0.6-0.5-1c0-0.9,0.3-1.8,0.9-2.5c0.3-0.3,1.1-0.8,1.8-0.8c0.3,0,0.6,0,0.9,0.1
		c-0.2,0.4-0.2,0.5-0.2,0.6c-0.2,0.6-0.4,2.1-0.4,2.6c0,0.2,0,0.3,0.1,0.3C130.7,35.8,130.9,35.7,131.2,35.4
		C131.2,35.4,131.2,35.4,131.2,35.4 M129.9,34.5c0.1-0.3,0.3-0.6,0.3-0.9c0.1-0.4,0.2-0.9,0.3-1c-0.1-0.1-0.4-0.1-0.6-0.1
		c-0.6,0-0.9,0.3-1.2,0.8c-0.3,0.6-0.4,1.2-0.4,1.7c0,0.5,0.1,0.7,0.3,0.7C128.8,35.8,129.3,35.4,129.9,34.5"/>
	<path fill="#707173" d="M133,29.8c0.5-0.3,1.1-0.7,1.3-0.7c0.1,0,0.1,0.2,0,0.6c-0.3,1.4-0.9,5-1,5.7c0,0.3,0,0.4,0.1,0.4
		c0.1,0,0.3-0.1,0.6-0.5c0,0,0,0,0,0c0,0,0,0.2,0,0.2c-0.4,0.6-0.9,1-1.2,1c-0.2,0-0.3-0.2-0.1-1.1c0.2-1,0.8-4.2,0.9-5.3
		c0-0.2,0-0.3-0.1-0.3c-0.1,0-0.3,0.1-0.6,0.2C132.9,30,133,29.8,133,29.8"/>
</g>
</svg>
