<svg xmlns="http://www.w3.org/2000/svg" xmlns:xlink="http://www.w3.org/1999/xlink" viewBox="0 0 30.94 30.94"><defs><style>.cls-1{fill:none;}.cls-2{clip-path:url(#clip-path);}.cls-3{fill:#fff;}</style><clipPath id="clip-path"><rect class="cls-1" width="30.94" height="30.94"/></clipPath></defs><title>Resurs 10</title><g id="Lager_2" data-name="Lager 2"><g id="Lager_1-2" data-name="Lager 1"><g class="cls-2"><path class="cls-3" d="M15.47.69A14.78,14.78,0,1,0,30.25,15.47,14.8,14.8,0,0,0,15.47.69m0,30.25A15.47,15.47,0,1,1,30.94,15.47,15.49,15.49,0,0,1,15.47,30.94"/><path class="cls-3" d="M14.5,18.38a2.55,2.55,0,0,0,.75-.12,2,2,0,0,0,.75-.44,3.6,3.6,0,0,0,.67-.85,5.46,5.46,0,0,0,.52-1.38L18,12.46a2.78,2.78,0,0,0-.5-.11,5.21,5.21,0,0,0-.6,0,3.7,3.7,0,0,0-1.65.36,3.93,3.93,0,0,0-1.26,1A4.37,4.37,0,0,0,13.18,15a4.12,4.12,0,0,0-.29,1.5,2.61,2.61,0,0,0,.1.75,1.88,1.88,0,0,0,.3.6,1.61,1.61,0,0,0,.5.4,1.73,1.73,0,0,0,.71.14m4.44.71a1.79,1.79,0,0,1-1.34-.47,1.92,1.92,0,0,1-.47-1.35,3.68,3.68,0,0,1-1.28,1.36,3,3,0,0,1-1.54.42,2.17,2.17,0,0,1-1-.2,1.9,1.9,0,0,1-.68-.54,2.33,2.33,0,0,1-.41-.8,3.61,3.61,0,0,1-.14-1,4.82,4.82,0,0,1,.33-1.73,4.9,4.9,0,0,1,1-1.55,5,5,0,0,1,1.55-1.13A4.82,4.82,0,0,1,17,11.67a5.42,5.42,0,0,1,1,.09,3.94,3.94,0,0,1,.84.26L18,15.53c-.08.31-.14.58-.18.83a5.57,5.57,0,0,0-.05.66,2,2,0,0,0,.11.72,1,1,0,0,0,.3.44.93.93,0,0,0,.43.22,2.07,2.07,0,0,0,.5.05,2.19,2.19,0,0,0,1.1-.3,3,3,0,0,0,.93-.86,4.63,4.63,0,0,0,.64-1.36A6.2,6.2,0,0,0,22,14.14a6.43,6.43,0,0,0-.49-2.61,5.26,5.26,0,0,0-1.33-1.85,5.6,5.6,0,0,0-2-1.1,7.75,7.75,0,0,0-2.38-.37,6.47,6.47,0,0,0-2.62.54A6.83,6.83,0,0,0,11,10.24a7.2,7.2,0,0,0-1.49,2.29A7.71,7.71,0,0,0,9,15.45a8,8,0,0,0,.57,3.14,6.49,6.49,0,0,0,1.55,2.27,6.77,6.77,0,0,0,2.29,1.39,8.24,8.24,0,0,0,2.78.47,10.09,10.09,0,0,0,2.73-.35,7.91,7.91,0,0,0,2.25-1,.34.34,0,0,1,.17-.05.2.2,0,0,1,.2.14l.16.38A9.42,9.42,0,0,1,19.19,23a10.56,10.56,0,0,1-3,.4,8.8,8.8,0,0,1-3.11-.53,7.24,7.24,0,0,1-2.51-1.54,7.13,7.13,0,0,1-1.69-2.5,8.69,8.69,0,0,1-.62-3.37,8,8,0,0,1,.6-3.13,7.83,7.83,0,0,1,1.63-2.51,7.38,7.38,0,0,1,5.34-2.26A8,8,0,0,1,18.4,8a6.39,6.39,0,0,1,2.2,1.25,6.13,6.13,0,0,1,1.53,2.06,6.79,6.79,0,0,1,.57,2.86,6.33,6.33,0,0,1-.3,2,4.79,4.79,0,0,1-.8,1.56,3.64,3.64,0,0,1-1.2,1,3.09,3.09,0,0,1-1.46.36"/></g></g></g></svg>