<svg xmlns="http://www.w3.org/2000/svg" viewBox="0 0 18.2 18.2"><defs><style>.cls-1{fill:#4d5055;}</style></defs><title>Resurs 13</title><g id="Lager_2" data-name="Lager 2"><g id="Lager_1-2" data-name="Lager 1"><path class="cls-1" d="M9.1.8a8.3,8.3,0,1,0,8.3,8.3A8.31,8.31,0,0,0,9.1.8m0,17.4a9.1,9.1,0,1,1,9.1-9.1,9.11,9.11,0,0,1-9.1,9.1"/><path class="cls-1" d="M9.1.8C6.55.8,4.47,4.52,4.47,9.1s2.08,8.3,4.63,8.3,4.63-3.72,4.63-8.3S11.65.8,9.1.8m0,17.4c-3,0-5.43-4.08-5.43-9.1S6.1,0,9.1,0s5.43,4.08,5.43,9.1S12.1,18.2,9.1,18.2"/><path class="cls-1" d="M9.5.81V17.39A8.3,8.3,0,0,0,9.5.81M9.1,18.2a.4.4,0,0,1-.4-.4V.4A.4.4,0,0,1,9.1,0a9.1,9.1,0,0,1,0,18.2"/><path class="cls-1" d="M1.25,11.77H17a8.15,8.15,0,0,0,0-5.34H1.25a8.15,8.15,0,0,0,0,5.34m16,.8H1a.41.41,0,0,1-.38-.26,9,9,0,0,1,0-6.42A.41.41,0,0,1,1,5.63H17.23a.41.41,0,0,1,.38.26,9,9,0,0,1,0,6.42.41.41,0,0,1-.38.26"/></g></g></svg>