<svg xmlns="http://www.w3.org/2000/svg" viewBox="0 0 13.03 17.71"><defs><style>.cls-1{fill:#4d5055;}</style></defs><title>Resurs 14</title><g id="Lager_2" data-name="Lager 2"><g id="Lager_1-2" data-name="Lager 1"><path class="cls-1" d="M6.58.8A2.9,2.9,0,0,0,3.94,3.9,2.91,2.91,0,0,0,6.58,7,2.91,2.91,0,0,0,9.22,3.9,2.9,2.9,0,0,0,6.58.8m0,7A3.7,3.7,0,0,1,3.14,3.9,3.69,3.69,0,0,1,6.58,0,3.69,3.69,0,0,1,10,3.9,3.7,3.7,0,0,1,6.58,7.81"/><path class="cls-1" d="M1,16.91H12l.23-3.4a2.55,2.55,0,0,0-1.57-2.29,12.38,12.38,0,0,0-8.28,0A2.58,2.58,0,0,0,.8,13.51Zm11.33.8H.66a.4.4,0,0,1-.4-.37L0,13.57a3.37,3.37,0,0,1,2.1-3.1,13.09,13.09,0,0,1,8.82,0,3.32,3.32,0,0,1,2.1,3.1l-.25,3.77a.4.4,0,0,1-.4.37"/></g></g></svg>