<svg xmlns="http://www.w3.org/2000/svg" viewBox="0 0 17.48 17.79"><defs><style>.cls-1{fill:#4d5055;}</style></defs><title>Resurs 16</title><g id="Lager_2" data-name="Lager 2"><g id="Lager_1-2" data-name="Lager 1"><path class="cls-1" d="M17.08,17.79a.42.42,0,0,1-.29-.12l-4.45-4.46a.39.39,0,0,1,0-.56.4.4,0,0,1,.57,0l4.45,4.45a.41.41,0,0,1-.28.69"/><path class="cls-1" d="M7.58.8a6.78,6.78,0,1,0,6.77,6.78A6.79,6.79,0,0,0,7.58.8m0,14.35a7.58,7.58,0,1,1,7.58-7.57,7.58,7.58,0,0,1-7.58,7.57"/></g></g></svg>