<svg xmlns="http://www.w3.org/2000/svg" xmlns:xlink="http://www.w3.org/1999/xlink" viewBox="0 0 30.94 31.06"><defs><style>.cls-1{fill:none;}.cls-2{clip-path:url(#clip-path);}.cls-3{fill:#fff;}</style><clipPath id="clip-path"><rect class="cls-1" width="30.94" height="31.06"/></clipPath></defs><title>Resurs 9</title><g id="Lager_2" data-name="Lager 2"><g id="Lager_1-2" data-name="Lager 1"><g class="cls-2"><path class="cls-3" d="M15.47.69A14.84,14.84,0,1,0,30.25,15.53,14.83,14.83,0,0,0,15.47.69m0,30.37A15.53,15.53,0,1,1,30.94,15.53,15.52,15.52,0,0,1,15.47,31.06"/><path class="cls-3" d="M11,22.78h8.94V8.28H11Zm9.28.69H10.66a.35.35,0,0,1-.35-.35V7.94a.35.35,0,0,1,.35-.35h9.62a.35.35,0,0,1,.35.35V23.12a.35.35,0,0,1-.35.35"/><path class="cls-3" d="M12.65,18.1h5.64V10H12.65Zm6,.7H12.34a.33.33,0,0,1-.31-.35V9.67a.33.33,0,0,1,.31-.35H18.6a.33.33,0,0,1,.31.35v8.78a.33.33,0,0,1-.31.35"/><path class="cls-3" d="M16.29,20.87a.82.82,0,1,1-.82-.82.82.82,0,0,1,.82.82"/></g></g></g></svg>