<svg xmlns="http://www.w3.org/2000/svg" viewBox="0 0 33.42 24.07"><defs><style>.cls-1{fill:#f5333f;}</style></defs><title>Resurs 4</title><g id="Lager_2" data-name="Lager 2"><g id="Lager_1-2" data-name="Lager 1"><path class="cls-1" d="M28.73,24.07H20.19a.67.67,0,0,1-.67-.67V14.32H13.9V23.4a.67.67,0,0,1-.67.67H4.69A.67.67,0,0,1,4,23.4V9.53a.67.67,0,0,1,1.34,0V22.74h7.21V13.65a.67.67,0,0,1,.66-.67h7a.67.67,0,0,1,.67.67v9.09h7.2V9.53a.67.67,0,0,1,1.34,0V23.4a.67.67,0,0,1-.67.67"/><path class="cls-1" d="M32.75,12.82a.66.66,0,0,1-.38-.12L16.71,1.49,1.06,12.7a.67.67,0,0,1-.78-1.09L16.32.12a.69.69,0,0,1,.78,0l16,11.49a.68.68,0,0,1,.16.94.67.67,0,0,1-.55.27"/></g></g></svg>